<svg width="18" height="18" viewBox="0 0 18 18" fill="none" xmlns="http://www.w3.org/2000/svg">
<path d="M2.26259 2.26357C3.72228 0.803883 5.66301 0 7.72728 0C9.79155 0 11.7323 0.803883 13.1919 2.26357C14.6516 3.72322 15.4555 5.66395 15.4555 7.72819C15.4555 9.61548 14.7832 11.3992 13.5524 12.8068L17.8444 17.0988C18.0506 17.305 18.0506 17.6392 17.8444 17.8454C17.7413 17.9484 17.6062 18 17.4712 18C17.3361 18 17.2009 17.9485 17.0979 17.8453L12.8059 13.5534C11.3983 14.7841 9.61457 15.4564 7.72728 15.4564C5.66298 15.4564 3.72232 14.6526 2.26263 13.1929C0.802977 11.7332 -0.000905991 9.79249 -0.000905991 7.72822C-0.000905991 5.66395 0.802942 3.72322 2.26259 2.26357ZM3.00917 12.4463C5.61077 15.0479 9.84376 15.0479 12.4454 12.4463C15.0469 9.84477 15.0469 5.61171 12.4454 3.01015C11.1444 1.70923 9.43612 1.05898 7.72725 1.05898C6.01879 1.05898 4.30978 1.70954 3.00914 3.01015C0.407644 5.61168 0.407644 9.84473 3.00917 12.4463Z" fill="#3576CB"/>
</svg>
