<svg width="23" height="20" viewBox="0 0 23 20" fill="none" xmlns="http://www.w3.org/2000/svg">
<g clip-path="url(#clip0)">
<path d="M4.93257 15.966H19.6116C19.6566 15.966 19.7001 15.9601 19.742 15.9508C19.7453 15.9508 19.7481 15.9513 19.7514 15.9513C20.0648 15.9513 20.3193 15.7153 20.3193 15.4243V0.527085C20.3194 0.236132 20.0648 0 19.7514 0H19.6128H5.84088H4.93337C3.42171 0 2.19211 1.14143 2.19211 2.54399C2.19211 2.5628 2.1961 2.58065 2.19807 2.59881C2.1961 3.89442 2.17879 15.7995 2.1961 17.3645C2.19502 17.3952 2.19099 17.425 2.19099 17.4559C2.19099 18.8046 3.32881 19.9087 4.76001 19.9921C4.78873 19.9962 4.81688 20.0001 4.84667 20.0001H19.7514C20.0647 20.0001 20.3193 19.7641 20.3193 19.473V17.4889C20.3193 17.1981 20.0647 16.9619 19.7514 16.9619C19.4381 16.9619 19.1834 17.1981 19.1834 17.4889V18.9459H4.93257C4.06954 18.9459 3.36503 18.31 3.33041 17.517C3.33125 17.5028 3.33402 17.4895 3.33374 17.4751C3.33318 17.4519 3.33233 17.4159 3.33177 17.368C3.38141 16.5875 4.07939 15.966 4.93257 15.966ZM5.31983 2.54399C5.31983 2.25303 5.57426 2.0169 5.88775 2.0169C6.20125 2.0169 6.45568 2.25303 6.45568 2.54399V13.2505C6.45568 13.5413 6.20125 13.7776 5.88775 13.7776C5.57426 13.7776 5.31983 13.5413 5.31983 13.2505V2.54399Z" fill="white"/>
</g>
<defs>
<clipPath id="clip0">
<rect width="21.5498" height="20" fill="white" transform="translate(0.479492)"/>
</clipPath>
</defs>
</svg>
