<svg width="18" height="20" viewBox="0 0 18 20" fill="none" xmlns="http://www.w3.org/2000/svg">
<path d="M3.02341 0C1.49487 0 0.255859 1.23901 0.255859 2.76755V17.2325C0.255859 18.761 1.49487 20 3.02341 20H14.975C16.5035 20 17.7425 18.761 17.7425 17.2325V2.76755C17.7425 1.23901 16.5035 0 14.975 0H3.02341ZM6.33808 16.4763C6.33808 16.8518 6.03365 17.1562 5.65811 17.1562H3.41512C3.03916 17.1562 2.73473 16.8518 2.73473 16.4763V14.3325C2.73473 13.9565 3.03916 13.6521 3.41512 13.6521H5.65854C6.03407 13.6521 6.3385 13.9565 6.3385 14.3325L6.33808 16.4763ZM6.33808 12.1129C6.33808 12.4885 6.03365 12.7929 5.65811 12.7929H3.41512C3.03916 12.7929 2.73473 12.4885 2.73473 12.1129V9.93592C2.73473 9.56039 3.03916 9.25596 3.41512 9.25596H5.65854C6.03407 9.25596 6.3385 9.56039 6.3385 9.93592L6.33808 12.1129ZM10.8015 16.4763C10.8015 16.8518 10.4966 17.1562 10.1207 17.1562H7.87768C7.50172 17.1562 7.19729 16.8518 7.19729 16.4763V14.3325C7.19729 13.9565 7.50172 13.6521 7.87768 13.6521H10.1207C10.4966 13.6521 10.8015 13.9565 10.8015 14.3325V16.4763ZM10.8015 12.1129C10.8015 12.4885 10.4966 12.7929 10.1207 12.7929H7.87768C7.50172 12.7929 7.19729 12.4885 7.19729 12.1129V9.93592C7.19729 9.56039 7.50172 9.25596 7.87768 9.25596H10.1207C10.4966 9.25596 10.8015 9.56039 10.8015 9.93592V12.1129ZM15.2636 16.4763C15.2636 16.8518 14.9592 17.1562 14.5832 17.1562H12.3394C11.9639 17.1562 11.659 16.8518 11.659 16.4763V14.3325C11.659 13.9565 11.9639 13.6521 12.3394 13.6521H14.5832C14.9592 13.6521 15.2636 13.9565 15.2636 14.3325V16.4763ZM15.2636 12.1129C15.2636 12.4885 14.9592 12.7929 14.5832 12.7929H12.3394C11.9639 12.7929 11.659 12.4885 11.659 12.1129V9.93592C11.659 9.56039 11.9639 9.25596 12.3394 9.25596H14.5832C14.9592 9.25596 15.2636 9.56039 15.2636 9.93592V12.1129ZM15.2636 5.66709C15.2636 6.04262 14.9592 6.34705 14.5832 6.34705H3.41555C3.03959 6.34705 2.73516 6.04262 2.73516 5.66709V3.52287C2.73516 3.14734 3.03959 2.84291 3.41555 2.84291H14.5832C14.9592 2.84291 15.2636 3.14734 15.2636 3.52287V5.66709Z" fill="white"/>
</svg>
