<svg width="28" height="28" viewBox="0 0 28 28" fill="none" xmlns="http://www.w3.org/2000/svg">
<path d="M26.5486 14.2102C26.5409 13.3006 25.7918 12.5667 24.8822 12.5667H16.8254C16.3973 12.5591 16.061 12.2151 16.0686 11.7947V2.13267C16.0686 0.993712 15.1437 0.0687866 14.0048 0.0687866C12.8658 0.0687866 11.9409 0.993712 11.9409 2.13267V11.7947C11.9409 12.2151 11.6045 12.5591 11.1841 12.5667H3.12733C2.21005 12.5667 1.46858 13.3006 1.46094 14.2102V17.8411H26.5486V14.2102Z" fill="#3576CB"/>
<path d="M28 27.9312L26.6317 19.3699H1.36828L0 27.9312H6.88725V24.3538C6.88725 23.9334 7.23123 23.5894 7.65165 23.5894C8.07207 23.5894 8.41605 23.9334 8.41605 24.3538V27.9312H13.2318V22.7639C13.2318 22.3435 13.5758 21.9995 13.9962 21.9995C14.4166 21.9995 14.7606 22.3435 14.7606 22.7639V27.9312H19.5763V24.3538C19.5763 23.9334 19.9203 23.5894 20.3407 23.5894C20.7611 23.5894 21.1051 23.9334 21.1051 24.3538V27.9312H28Z" fill="#3576CB"/>
</svg>
