<svg width="13" height="15" viewBox="0 0 13 15" fill="none" xmlns="http://www.w3.org/2000/svg">
<path d="M11.1885 5.88576V4.68749C11.1885 2.10297 9.08548 0 6.50096 0C3.91644 0 1.81347 2.10297 1.81347 4.68749V5.88576C1.25575 6.21096 0.875977 6.80897 0.875977 7.5V13.125C0.875977 14.1591 1.71687 15 2.75096 15H10.251C11.285 15 12.1259 14.1591 12.1259 13.125V7.5C12.1259 6.80894 11.7462 6.21093 11.1885 5.88576ZM6.50096 1.87499C8.05186 1.87499 9.31347 3.13657 9.31347 4.68749V5.62499H3.68845V4.68749C3.68845 3.13659 4.95006 1.87499 6.50096 1.87499ZM7.43845 10.885V12.1875H5.56347V10.885C5.2777 10.6277 5.09472 10.2586 5.09472 9.84373C5.09472 9.06708 5.7243 8.43749 6.50096 8.43749C7.27762 8.43749 7.9072 9.06708 7.9072 9.84373C7.9072 10.2586 7.72422 10.6277 7.43845 10.885Z" fill="white" fill-opacity="0.5"/>
</svg>
