<svg width="170" height="164" viewBox="0 0 170 164" fill="none" xmlns="http://www.w3.org/2000/svg">
<g opacity="0.03">
<path d="M12.3985 85.7337C12.8357 89.0707 14.4339 91.8943 17.1485 94.1319C16.9931 98.8452 19.0498 102.566 23.2652 105.197C23.7602 109.126 26.0438 112.046 29.8861 113.652C32.4765 114.733 35.1331 114.659 37.1574 114.474C40.8351 114.136 44.7455 113.717 49.838 113.113C51.2419 112.946 52.7651 112.383 54.239 111.839C55.4593 111.387 56.8425 110.875 57.6056 110.85C61.2368 110.731 71.6652 114.59 75.3765 116.087L77.2589 116.845L90.5756 71.8454L91.1046 70.0407L70.6812 64.1191C69.8791 63.7537 67.6112 62.3169 66.2896 60.6517C65.7384 59.9565 65.1958 59.2777 64.6602 58.6078C61.5661 54.737 58.6437 51.0791 55.9013 46.7035C53.7399 43.2532 52.8039 39.8566 53.0415 36.3217C53.1432 34.8152 53.2033 33.3277 53.2222 31.899C53.2322 31.1171 53.4159 30.1105 53.6111 29.0458C53.9046 27.4421 54.2089 25.783 54.0335 24.2926C53.8104 22.3875 52.8028 21.0544 51.1715 20.4719L50.9452 20.1818L47.8346 20.1422L47.6885 20.1641C44.7272 20.6043 42.0627 22.0339 39.7697 24.412C37.6116 26.6485 30.5455 34.4267 30.196 40.5939C30.0274 43.5672 30.8414 46.3437 31.617 48.714C31.7327 49.0668 31.8512 49.4204 31.9682 49.7729C32.7012 51.9651 33.3927 54.0358 33.5475 56.1987C33.6989 58.3259 32.7543 58.9653 31.9142 59.2824C29.8056 60.0815 27.506 60.643 25.2819 61.1865L24.9307 61.2721C24.0308 61.4924 23.1142 61.6563 22.145 61.8297C20.9381 62.0461 19.6909 62.2694 18.4527 62.6128C16.6088 63.1246 15.6011 63.5043 14.8593 64.2803C14.0039 65.1741 13.8872 66.2165 13.7517 67.4222C13.6863 68.0012 13.6055 68.7222 13.4333 69.6253C13.2676 70.4907 12.8981 71.5597 12.506 72.6903C11.3991 75.8865 10.0329 79.8322 12.427 82.5111C12.4289 82.8209 12.4074 83.1561 12.3844 83.5098C12.3425 84.1853 12.2945 84.9464 12.3985 85.7337ZM15.9911 73.9034C16.4279 72.6417 16.8403 71.4512 17.0563 70.3225C17.2548 69.2805 17.3456 68.4809 17.4178 67.8395C17.4599 67.465 17.5112 67.0082 17.5648 66.8118C17.7403 66.7048 18.2174 66.5106 19.4422 66.1712C20.5133 65.8734 21.624 65.6752 22.7983 65.4641C23.7812 65.2879 24.798 65.1062 25.8103 64.8579L26.1603 64.7726C28.3744 64.2311 30.6598 63.6699 32.8704 62.8618C44.3558 73.1176 52.9631 75.8616 61.2926 78.5155C62.8755 79.0195 64.5126 79.541 66.147 80.1073C69.8038 81.3738 78.9508 83.414 83.045 84.3036L81.4018 89.8575C77.5802 88.7892 67.9167 86.0713 64.2823 84.8768C50.563 80.3714 37.5797 79.198 29.1026 79.0072C22.1401 78.8502 17.0706 79.2991 14.9063 79.5424C14.4873 78.2455 15.2794 75.9593 15.9911 73.9034ZM48.0913 23.8364L49.5835 23.8553C49.6317 23.8689 49.6769 23.8805 49.7173 23.8879C50.1128 23.9698 50.2908 24.0349 50.3723 24.7242C50.4828 25.6646 50.2301 27.0473 49.985 28.3843C49.7706 29.5528 49.5501 30.7615 49.5357 31.8544C49.5186 33.2152 49.4606 34.6362 49.3637 36.0768C49.0756 40.3538 50.2244 44.5883 52.7774 48.6637C55.6315 53.2191 58.618 56.956 61.7802 60.913C62.3126 61.5796 62.8532 62.2549 63.4023 62.9467C65.3059 65.3437 68.2838 67.1204 69.3492 67.5621L69.4441 67.6012L86.5226 72.5525L84.0949 80.7557C80.2116 79.9141 70.8666 77.8388 67.3549 76.622C65.6773 76.0411 64.018 75.5124 62.4129 75.0012C54.2609 72.4035 46.5402 69.9427 35.9955 60.7029C36.9272 59.4627 37.3635 57.8339 37.2291 55.9381C37.0421 53.3094 36.2427 50.918 35.4697 48.6055C35.3542 48.2604 35.2385 47.9141 35.1255 47.5685C34.4231 45.4246 33.7497 43.1361 33.8812 40.8048C34.1026 36.9086 38.6236 30.9186 42.4271 26.9752C44.1268 25.2094 45.9829 24.1826 48.0913 23.8364ZM57.4856 107.165C57.1143 107.177 56.7291 107.229 56.3328 107.309C55.2784 107.523 54.1426 107.943 52.9597 108.381C51.6889 108.851 50.3732 109.338 49.4039 109.453C44.3455 110.052 40.4645 110.469 36.8213 110.804C35.2213 110.951 33.1475 111.02 31.3072 110.251C28.6996 109.161 27.3051 107.45 26.9424 104.883C42.4186 100.066 53.9961 102.893 59.0517 104.127C59.2853 104.185 59.5076 104.238 59.7165 104.289C63.1177 105.108 71.4717 107.608 75.7616 108.905L74.8671 111.927C70.7869 110.359 61.5951 107.03 57.4856 107.165ZM16.0551 85.2536C15.9985 84.8214 16.0314 84.2995 16.0663 83.7487C16.0794 83.5449 16.092 83.3387 16.1024 83.1276C18.4915 82.8919 23.1039 82.5565 29.1103 82.696C37.3149 82.8864 49.8779 84.0283 63.1314 88.3804C66.8684 89.6073 76.4715 92.3089 80.3547 93.3932L79.0151 97.9174C75.0407 96.7737 65.6892 94.0782 62.0736 93.0018C47.5512 88.6762 36.4771 88.6686 29.744 89.424C24.9927 89.9576 21.6638 90.9265 19.8365 91.5776C19.775 91.5174 19.7115 91.4603 19.645 91.4076C17.5533 89.7391 16.3791 87.726 16.0551 85.2536ZM20.8418 95.1367C24.5823 93.7598 38.4567 89.8162 61.02 96.5376C64.6414 97.6166 73.9733 100.306 77.9685 101.456L76.8109 105.368C72.4861 104.058 64.1089 101.553 60.5822 100.704C60.3763 100.654 60.1592 100.601 59.9298 100.545C54.4455 99.2059 41.7222 96.0982 24.6986 101.73C22.2229 100.023 20.9761 97.8954 20.8418 95.1367Z" fill="white"/>
<path d="M149.961 61.8531L141.194 58.4668L148.791 38.7932C150.075 35.4703 148.415 31.7223 145.092 30.4399L144.025 30.0272C142.415 29.4053 140.659 29.4477 139.082 30.1468C137.504 30.8458 136.293 32.1167 135.672 33.7261L128.074 53.3997L120.098 50.3199C115.829 48.6715 111.014 50.8037 109.366 55.0726L104.85 66.7658C103.83 69.1465 102.159 70.6417 99.8836 71.2113C98.0695 71.6651 96.5111 71.3651 96.5059 71.3648L94.8197 71.0102L81.476 118.242L83.1659 118.788C83.6714 118.952 95.6926 122.756 110.014 120.499C110.808 120.374 111.593 120.233 112.369 120.076C119.882 118.551 126.575 115.508 132.296 111.011C140.145 104.841 146.135 95.9317 150.099 84.5308L154.712 72.5857C155.51 70.5174 155.456 68.2627 154.558 66.2352C153.663 64.2071 152.03 62.6518 149.961 61.8531ZM139.111 35.0549C139.378 34.3635 139.898 33.8181 140.575 33.5186C141.251 33.2192 142.005 33.2011 142.696 33.4669L143.764 33.8797C145.19 34.4298 145.902 36.0384 145.351 37.4645L137.908 56.7396L131.667 54.3302L139.111 35.0549ZM110.757 61.7066L149.225 76.5618L147.321 81.4926L108.935 66.4235L110.757 61.7066ZM138.178 102.661L119.935 115.949L101.545 120.063L83.9854 118.165L95.1756 72.233L101.668 72.5283L106.552 67.4715L148.371 83.8876L138.178 102.661ZM151.274 71.2564L150.554 73.122L112.085 58.2669L112.806 56.4013C113.722 54.0289 116.397 52.8449 118.768 53.7611L148.633 65.2941C149.782 65.7382 150.689 66.6026 151.188 67.7289C151.686 68.8553 151.717 70.1077 151.274 71.2564Z" fill="white"/>
<path d="M143.327 37.972C143.654 37.1255 143.233 36.1743 142.386 35.8474C141.54 35.5205 140.589 35.9417 140.262 36.7883C139.935 37.6348 140.356 38.586 141.203 38.9129C142.049 39.2398 143 38.8186 143.327 37.972Z" fill="white"/>
<path d="M148.372 83.8871L106.553 67.4711L101.668 72.5278L95.1763 72.2326L83.9861 118.165L101.545 120.062L119.936 115.948L138.178 102.66L148.372 83.8871ZM102.21 84.1523C102.935 84.0856 103.698 83.9787 104.486 83.8188C108.896 82.9236 114.079 80.3625 117.708 73.8321L122.968 75.8971C115.559 93.0916 100.825 92.5071 93.0626 90.7867L95.0507 83.7484C96.8651 84.1081 99.3984 84.4102 102.21 84.1523ZM97.481 75.149C98.3258 75.1683 99.4128 75.1085 100.6 74.8313C102.722 74.3357 105.498 73.0494 107.435 69.7989L114.238 72.4693C111.435 77.2516 107.324 79.9416 101.994 80.468C99.7043 80.694 97.6005 80.4683 96.0581 80.1832L97.481 75.149ZM92.0609 94.3352C95.535 95.1107 100.794 95.7756 106.381 94.6416C106.79 94.5586 107.201 94.4662 107.612 94.3633C111.713 93.3388 115.362 91.4264 118.46 88.6812C121.725 85.7881 124.391 81.9458 126.403 77.2436L130.976 79.0392C128.293 87.5264 123.586 93.5735 116.975 97.0149C110.443 100.417 103.148 100.667 98.1801 100.279C95.038 100.033 92.3998 99.5088 90.7137 99.1036L92.0609 94.3352ZM89.7093 102.658C91.5185 103.1 94.3555 103.672 97.7788 103.947C102.086 104.293 106.202 104.07 110.001 103.299C113.124 102.665 116.033 101.661 118.654 100.3C126.114 96.424 131.413 89.7284 134.416 80.3911L138.68 82.0639C134.91 93.2916 128.591 101.249 119.882 105.725C111.837 109.86 103.139 110.248 97.2592 109.846C93.276 109.573 90.0065 108.91 88.0763 108.441L89.7093 102.658ZM109.57 116.835C99.1187 118.509 89.7455 116.671 86.0126 115.746L87.0721 111.996C89.1241 112.504 92.597 113.216 96.8873 113.518C100.727 113.788 105.684 113.745 110.951 112.676C114.423 111.971 118.031 110.82 121.539 109.021C131.102 104.116 138.021 95.5034 142.117 83.4138L146.029 84.9492C139.165 103.333 126.905 114.059 109.57 116.835Z" fill="white"/>
<path opacity="0.84" d="M148.372 83.8871L106.553 67.4711L101.668 72.5278L95.1763 72.2326L83.9861 118.165L101.545 120.062L119.936 115.948L138.178 102.66L148.372 83.8871ZM102.21 84.1523C102.935 84.0856 103.698 83.9787 104.486 83.8188C108.896 82.9236 114.079 80.3625 117.708 73.8321L122.968 75.8971C115.559 93.0916 100.825 92.5071 93.0626 90.7867L95.0507 83.7484C96.8651 84.1081 99.3984 84.4102 102.21 84.1523ZM97.481 75.149C98.3258 75.1683 99.4128 75.1085 100.6 74.8313C102.722 74.3357 105.498 73.0494 107.435 69.7989L114.238 72.4693C111.435 77.2516 107.324 79.9416 101.994 80.468C99.7043 80.694 97.6005 80.4683 96.0581 80.1832L97.481 75.149ZM92.0609 94.3352C95.535 95.1107 100.794 95.7756 106.381 94.6416C106.79 94.5586 107.201 94.4662 107.612 94.3633C111.713 93.3388 115.362 91.4264 118.46 88.6812C121.725 85.7881 124.391 81.9458 126.403 77.2436L130.976 79.0392C128.293 87.5264 123.586 93.5735 116.975 97.0149C110.443 100.417 103.148 100.667 98.1801 100.279C95.038 100.033 92.3998 99.5088 90.7137 99.1036L92.0609 94.3352ZM89.7093 102.658C91.5185 103.1 94.3555 103.672 97.7788 103.947C102.086 104.293 106.202 104.07 110.001 103.299C113.124 102.665 116.033 101.661 118.654 100.3C126.114 96.424 131.413 89.7284 134.416 80.3911L138.68 82.0639C134.91 93.2916 128.591 101.249 119.882 105.725C111.837 109.86 103.139 110.248 97.2592 109.846C93.276 109.573 90.0065 108.91 88.0763 108.441L89.7093 102.658ZM109.57 116.835C99.1187 118.509 89.7455 116.671 86.0126 115.746L87.0721 111.996C89.1241 112.504 92.597 113.216 96.8873 113.518C100.727 113.788 105.684 113.745 110.951 112.676C114.423 111.971 118.031 110.82 121.539 109.021C131.102 104.116 138.021 95.5034 142.117 83.4138L146.029 84.9492C139.165 103.333 126.905 114.059 109.57 116.835Z" fill="white"/>
</g>
</svg>
