<svg width="378" height="317" viewBox="0 0 378 317" fill="none" xmlns="http://www.w3.org/2000/svg">
<g opacity="0.04">
<path d="M429.045 -0.821449C432.101 8.04748 431.622 17.0782 427.629 26.0339C433.873 37.6005 433.364 49.4389 426.116 61.2411C429.763 71.658 427.694 81.7825 420.102 90.5614C414.983 96.4795 408.262 99.594 402.982 101.647C393.386 105.374 383.11 109.189 369.653 114.009C365.943 115.337 361.443 115.824 357.089 116.297C353.484 116.686 349.397 117.128 347.462 118.014C338.254 122.228 317.03 144.813 309.63 153.159L305.876 157.39L216.739 61.6621L213.176 57.8168L256.775 17.6663C258.322 15.7582 262.195 9.35549 263.424 3.55875C263.935 1.13929 264.445 -1.22855 264.949 -3.56535C267.86 -17.0675 270.606 -29.8248 272.012 -44.1494C273.117 -55.4433 271.232 -65.0807 266.247 -73.6051C264.122 -77.2372 262.124 -80.8741 260.302 -84.415C259.305 -86.3534 257.596 -88.6366 255.786 -91.0505C253.061 -94.6872 250.241 -98.4486 248.826 -102.385C247.016 -107.415 247.874 -111.993 251.22 -115.473L251.424 -116.479L259.136 -120.442L259.527 -120.569C267.463 -123.15 275.887 -122.894 284.563 -119.81C292.726 -116.911 320.02 -106.284 328.555 -91.3315C332.67 -84.1226 334.089 -76.1839 335.099 -69.3063C335.248 -68.2822 335.392 -67.2529 335.538 -66.2279C336.433 -59.8478 337.281 -53.822 339.582 -48.2334C341.847 -42.7379 344.998 -42.3163 347.488 -42.5688C353.742 -43.1951 360.177 -44.6515 366.402 -46.0588L367.384 -46.2817C369.903 -46.8502 372.394 -47.58 375.027 -48.3516C378.308 -49.3113 381.697 -50.3038 385.213 -50.9854C390.449 -51.9995 393.435 -52.3042 396.25 -51.2897C399.495 -50.1226 401.081 -47.667 402.917 -44.8271C403.8 -43.4637 404.897 -41.7651 406.449 -39.726C407.938 -37.7727 410.188 -35.5648 412.571 -33.231C419.304 -26.6319 427.615 -18.485 424.97 -8.82635C425.35 -8.05119 425.821 -7.24144 426.317 -6.38743C427.261 -4.75423 428.327 -2.91499 429.045 -0.821449ZM405.383 -25.8741C402.725 -28.4792 400.217 -30.9373 398.276 -33.4849C396.486 -35.8381 395.266 -37.7203 394.289 -39.2309C393.719 -40.1129 393.023 -41.1888 392.645 -41.6123C392.074 -41.6612 390.643 -41.5529 387.165 -40.8779C384.123 -40.2902 381.105 -39.4046 377.913 -38.4722C375.242 -37.6904 372.479 -36.8804 369.645 -36.2421L368.666 -36.0201C362.469 -34.6202 356.07 -33.1807 349.55 -32.4503C333.637 7.40824 315.571 24.9492 298.087 41.9199C294.764 45.1441 291.327 48.4794 287.953 51.9229C280.403 59.6264 260.116 76.0818 251.006 83.3885L262.007 95.2036C270.214 87.79 290.948 69.0021 298.531 61.5061C327.163 33.2189 358.098 14.1597 379.011 3.15072C396.187 -5.89175 409.394 -11.0706 415.096 -13.1526C414.53 -16.909 409.713 -21.629 405.383 -25.8741ZM263.085 -110.906L259.386 -109.005C259.282 -108.911 259.184 -108.826 259.092 -108.758C258.207 -108.062 257.844 -107.678 258.497 -105.857C259.39 -103.374 261.739 -100.238 264.011 -97.2066C265.998 -94.5575 268.05 -91.8157 269.444 -89.1067C271.177 -85.7329 273.088 -82.2596 275.119 -78.7859C281.152 -68.4727 283.547 -56.4802 282.241 -43.1401C280.78 -28.2282 277.972 -15.1939 274.999 -1.39235C274.499 0.932332 273.989 3.28901 273.479 5.69727C271.708 14.043 266.486 22.1759 264.376 24.6016L264.188 24.8171L227.729 58.3905L243.979 75.8409C252.622 68.916 273.359 52.1271 280.609 44.7279C284.073 41.1944 287.556 37.8135 290.925 34.5438C308.037 17.9337 324.242 2.20118 339.071 -33.954C335.205 -35.8906 332.093 -39.4124 330.072 -44.3093C327.273 -51.1001 326.296 -58.06 325.352 -64.79C325.211 -65.7945 325.069 -66.8023 324.922 -67.805C324.011 -74.0266 322.847 -80.5732 319.622 -86.2263C314.229 -95.6723 295.507 -105 281.117 -110.113C274.683 -112.407 268.776 -112.662 263.085 -110.906ZM343.182 108.669C344.123 108.237 345.149 107.889 346.237 107.597C349.134 106.821 352.49 106.458 355.984 106.079C359.74 105.675 363.627 105.253 366.188 104.336C379.554 99.5474 389.754 95.7646 399.26 92.0727C403.435 90.4514 408.695 88.0475 412.332 83.8439C417.483 77.884 418.836 71.8814 416.551 65.026C371.954 72.2384 346.58 93.6751 335.5 103.036C334.989 103.471 334.501 103.88 334.043 104.267C326.574 110.536 308.837 127.152 299.746 135.72L305.733 142.149C313.964 133.165 332.761 113.439 343.182 108.669ZM419.326 2.52413C418.93 1.37523 418.199 0.114187 417.428 -1.2167C417.142 -1.70885 416.854 -2.20785 416.566 -2.72147C410.313 -0.341251 398.388 4.55295 383.575 12.364C363.342 23.033 333.416 41.4915 305.756 68.8175C297.957 76.5217 277.354 95.1939 269.012 102.724L277.976 112.347C286.471 104.556 306.454 86.2113 314.137 79.0335C344.996 50.1972 372.616 36.4187 390.354 29.9376C402.871 25.3653 412.381 23.6465 417.749 23.0008C417.827 22.7742 417.915 22.5526 418.015 22.3386C421.161 15.5767 421.589 9.09526 419.326 2.52413ZM419.663 33.1296C408.619 34.342 369.103 41.7415 321.159 86.5461C313.465 93.7378 293.523 112.042 284.984 119.875L292.733 128.198C301.895 119.556 319.684 102.897 327.428 96.3961C327.88 96.0179 328.356 95.6153 328.859 95.1907C340.878 85.0347 368.761 61.4725 418.232 54.3707C422.289 47.0381 422.755 40.1794 419.663 33.1296Z" fill="white"/>
<path d="M56.1574 110.517L73.8248 91.1744L30.4254 51.5287C23.094 44.833 22.5787 33.4193 29.2753 26.0913L31.4255 23.7354C34.6682 20.1841 39.1025 18.1079 43.9068 17.8921C48.7112 17.6763 53.3116 19.3426 56.8629 22.5853L100.262 62.231L116.336 44.6367C124.939 35.22 139.601 34.5572 149.017 43.1601L174.813 66.7237C180.318 71.3952 186.343 73.0504 192.729 71.6439C197.819 70.5222 201.334 67.8373 201.347 67.8302L205.113 64.8504L297.091 166.114L293.553 169.576C292.495 170.612 267.229 195.04 228.692 207.204C226.558 207.879 224.424 208.502 222.291 209.073C201.653 214.603 181.172 215.328 161.312 211.215C134.062 205.574 108.046 190.788 83.9908 167.269L57.6408 143.197C53.0783 139.029 50.4118 133.336 50.1334 127.161C49.8481 120.989 51.9893 115.079 56.1574 110.517ZM49.9316 30.1743C48.4062 28.7814 46.4313 28.0666 44.3719 28.1597C42.3125 28.2528 40.4085 29.1446 39.0146 30.6667L36.8643 33.0225C33.9896 36.167 34.2122 41.0649 37.3566 43.9396L79.8767 82.7825L92.4552 69.0163L49.9316 30.1743ZM153.791 61.4397L76.2697 146.3L87.1481 156.236L164.198 70.9442L153.791 61.4397ZM136.261 197.69L198.287 208.177L249.282 195.592L290.734 169.04L205.745 68.3434L189.913 77.1466L171.444 70.5988L87.5027 163.517L136.261 197.69ZM64.5652 135.609L68.6806 139.369L146.202 54.5085L142.086 50.7491C136.853 45.9681 128.707 46.3382 123.929 51.5704L63.7473 117.451C61.4324 119.987 60.2427 123.271 60.3984 126.701C60.5541 130.13 62.0329 133.294 64.5652 135.609Z" fill="white"/>
<path d="M43.0369 42.6916C41.1695 40.9857 41.0387 38.089 42.7446 36.2216C44.4505 34.3542 47.3472 34.2233 49.2145 35.9292C51.0819 37.6351 51.2128 40.5319 49.5069 42.3992C47.801 44.2666 44.9043 44.3975 43.0369 42.6916Z" fill="white"/>
<path d="M87.4996 163.517L171.441 70.5991L189.91 77.1469L205.741 68.3438L290.731 169.04L249.279 195.592L198.284 208.177L136.258 197.69L87.4996 163.517ZM203.003 106.822C201.112 107.557 199.074 108.238 196.91 108.818C184.794 112.065 168.68 112.115 151.512 100.331L140.956 112.017C180.805 145.712 216.839 125.947 234.068 112.01L220.363 96.9197C216.283 100.072 210.338 103.973 203.003 106.822ZM203.615 78.4838C201.531 79.5815 198.745 80.7831 195.439 81.5661C189.528 82.9664 181.002 83.207 172.132 77.5036L158.476 92.6189C171.411 101.068 185.011 102.671 198.963 97.3622C204.957 95.081 209.926 91.9039 213.42 89.276L203.615 78.4838ZM240.977 119.619C233.272 125.87 220.977 134.063 205.628 138.176C204.505 138.477 203.366 138.757 202.212 139.011C190.706 141.551 179.226 141.313 168.085 138.313C156.347 135.151 144.919 128.877 134.057 119.645L124.879 129.807C142.118 147.649 161.375 156.889 182.145 157.26C202.669 157.632 221.181 149.193 233.095 142.053C240.629 137.535 246.559 132.948 250.262 129.842L240.977 119.619ZM257.185 137.462C253.221 140.814 246.852 145.764 238.654 150.706C228.338 156.919 217.791 161.477 207.355 164.274C198.775 166.573 190.269 167.681 182.038 167.542C158.61 167.141 137.07 157.02 117.975 137.455L109.416 146.926C132.771 170.255 158.426 182.257 185.714 182.604C210.925 182.923 233.11 173.086 247.279 164.776C256.878 159.147 264.212 153.431 268.444 149.861L257.185 137.462ZM225.248 197.51C253.403 188.7 274.506 172.47 282.67 165.523L275.367 157.484C270.878 161.3 263.098 167.391 252.769 173.476C243.525 178.922 231.103 184.973 216.634 188.85C207.095 191.406 196.665 193.016 185.676 192.885C155.722 192.53 127.759 179.638 102.517 154.565L94.6658 163.255C134.633 200.595 178.549 212.122 225.248 197.51Z" fill="white"/>
<path opacity="0.84" d="M87.4996 163.517L171.441 70.5991L189.91 77.1469L205.741 68.3438L290.731 169.04L249.279 195.592L198.284 208.177L136.258 197.69L87.4996 163.517ZM203.003 106.822C201.112 107.557 199.074 108.238 196.91 108.818C184.794 112.065 168.68 112.115 151.512 100.331L140.956 112.017C180.805 145.712 216.839 125.947 234.068 112.01L220.363 96.9197C216.283 100.072 210.338 103.973 203.003 106.822ZM203.615 78.4838C201.531 79.5815 198.745 80.7831 195.439 81.5661C189.528 82.9664 181.002 83.207 172.132 77.5036L158.476 92.6189C171.411 101.068 185.011 102.671 198.963 97.3622C204.957 95.081 209.926 91.9039 213.42 89.276L203.615 78.4838ZM240.977 119.619C233.272 125.87 220.977 134.063 205.628 138.176C204.505 138.477 203.366 138.757 202.212 139.011C190.706 141.551 179.226 141.313 168.085 138.313C156.347 135.151 144.919 128.877 134.057 119.645L124.879 129.807C142.118 147.649 161.375 156.889 182.145 157.26C202.669 157.632 221.181 149.193 233.095 142.053C240.629 137.535 246.559 132.948 250.262 129.842L240.977 119.619ZM257.185 137.462C253.221 140.814 246.852 145.764 238.654 150.706C228.338 156.919 217.791 161.477 207.355 164.274C198.775 166.573 190.269 167.681 182.038 167.542C158.61 167.141 137.07 157.02 117.975 137.455L109.416 146.926C132.771 170.255 158.426 182.257 185.714 182.604C210.925 182.923 233.11 173.086 247.279 164.776C256.878 159.147 264.212 153.431 268.444 149.861L257.185 137.462ZM225.248 197.51C253.403 188.7 274.506 172.47 282.67 165.523L275.367 157.484C270.878 161.3 263.098 167.391 252.769 173.476C243.525 178.922 231.103 184.973 216.634 188.85C207.095 191.406 196.665 193.016 185.676 192.885C155.722 192.53 127.759 179.638 102.517 154.565L94.6658 163.255C134.633 200.595 178.549 212.122 225.248 197.51Z" fill="white"/>
</g>
</svg>
