<svg width="274" height="254" viewBox="0 0 274 254" fill="none" xmlns="http://www.w3.org/2000/svg">
<g opacity="0.05">
<path d="M101.642 340.827C107.249 346.246 114.219 349.059 122.368 349.2C128.885 357.968 137.981 361.747 149.418 360.435C155.983 366.843 164.336 368.844 173.617 366.211C179.873 364.436 184.582 360.468 187.984 357.212C194.164 351.295 200.649 344.895 209.009 336.454C211.314 334.126 213.262 330.908 215.149 327.795C216.71 325.216 218.479 322.293 219.826 321.147C226.237 315.692 250.708 307.645 259.595 305.004L264.102 303.664L223.329 202.878L221.685 198.843L176.118 217.57C174.137 218.064 167.953 218.731 163.156 217.619C161.153 217.154 159.191 216.706 157.253 216.264C146.06 213.71 135.486 211.295 124.203 207.319C115.307 204.182 108.711 199.374 104.042 192.624C102.054 189.746 100.017 186.963 97.9901 184.346C96.8803 182.914 95.7613 180.824 94.5793 178.612C92.7979 175.282 90.9561 171.835 88.4883 169.386C85.3357 166.254 81.5859 165.291 77.7886 166.588L76.9599 166.389L71.2638 170.804L71.0306 171.055C66.2971 176.125 63.5292 182.56 62.8029 190.179C62.1168 197.346 60.5277 221.64 68.7903 233.324C72.7738 238.957 78.2546 242.816 83.0799 245.994C83.7987 246.467 84.5235 246.937 85.2441 247.407C89.7351 250.324 93.9758 253.08 97.3765 256.778C100.72 260.416 99.9295 262.937 98.864 264.724C96.1942 269.214 92.8353 273.55 89.5875 277.743L89.0744 278.405C87.7607 280.102 86.3356 281.722 84.8288 283.434C82.9529 285.568 81.0142 287.771 79.2649 290.18C76.6606 293.768 75.3815 295.91 75.1562 298.387C74.8949 301.241 76.1869 303.299 77.6806 305.68C78.3972 306.824 79.2909 308.248 80.2813 310.133C81.2294 311.941 82.1015 314.412 83.0218 317.027C85.6257 324.418 88.8407 333.542 97.0454 334.944C97.4956 335.503 97.9402 336.142 98.4089 336.816C99.3072 338.101 100.318 339.55 101.642 340.827ZM91.0895 314.199C90.0614 311.282 89.0915 308.528 87.855 306.171C86.7117 303.995 85.7228 302.415 84.9285 301.148C84.4646 300.408 83.8987 299.506 83.7124 299.073C83.8763 298.626 84.461 297.586 86.1918 295.204C87.7038 293.119 89.4315 291.157 91.2558 289.08C92.7835 287.343 94.3646 285.547 95.8417 283.636L96.353 282.977C99.5856 278.802 102.919 274.487 105.761 269.834C141.376 271.857 160.938 264.415 179.866 257.211C183.463 255.841 187.183 254.425 190.962 253.094C199.418 250.115 218.943 240.618 227.649 236.325L232.682 248.764C224.213 252.34 202.774 261.353 194.462 264.43C163.092 276.053 137.863 292.655 122.221 304.537C109.373 314.296 100.83 322.423 97.2575 325.986C94.6271 324.24 92.765 318.952 91.0895 314.199ZM77.058 177.131L79.7905 175.013C79.8974 174.968 79.996 174.924 80.0799 174.879C80.9151 174.457 81.3317 174.318 82.4739 175.45C84.0307 176.995 85.5671 179.866 87.0514 182.644C88.3484 185.071 89.6923 187.581 91.2428 189.583C93.1748 192.074 95.1194 194.734 97.0218 197.485C102.669 205.654 110.86 211.673 121.367 215.378C133.113 219.519 143.917 221.986 155.358 224.597C157.284 225.038 159.239 225.482 161.232 225.944C168.141 227.544 176.102 226.469 178.671 225.732L178.899 225.667L217.002 210.006L224.434 228.379C216.18 232.455 196.246 242.173 188.124 245.033C184.245 246.4 180.475 247.835 176.827 249.224C158.302 256.274 140.756 262.951 108.312 261.412C108.212 257.82 106.653 254.237 103.675 250.994C99.5436 246.499 94.6447 243.317 89.9076 240.24C89.2005 239.781 88.4911 239.32 87.7878 238.856C83.4219 235.983 78.8998 232.806 75.7753 228.39C70.5561 221.008 70.1111 203.627 71.3179 190.992C71.8517 185.339 73.7352 180.8 77.058 177.131ZM214.292 314.639C213.636 315.196 213.013 315.846 212.411 316.563C210.808 318.472 209.355 320.872 207.841 323.371C206.217 326.058 204.533 328.837 202.942 330.444C194.637 338.828 188.202 345.182 182.08 351.044C179.392 353.618 175.732 356.735 171.288 357.997C164.988 359.782 159.992 358.692 155.631 354.561C176.739 323.505 201.804 311.928 212.749 306.873C213.256 306.64 213.736 306.417 214.189 306.208C221.535 302.786 240.285 295.266 249.934 291.43L252.672 298.199C243.013 301.241 221.548 308.466 214.292 314.639ZM107.579 334.683C106.852 333.98 106.159 332.987 105.428 331.938C105.158 331.55 104.883 331.158 104.598 330.76C108.588 326.887 116.466 319.625 127.556 311.213C142.704 299.723 167.126 283.671 197.43 272.442C205.974 269.275 227.28 260.32 235.884 256.684L239.981 266.818C231.127 270.478 210.286 279.081 202.179 282.345C169.613 295.453 149.526 311.414 138.41 322.496C130.566 330.317 125.929 336.876 123.556 340.692C123.358 340.672 123.16 340.659 122.964 340.66C116.765 340.653 111.732 338.697 107.579 334.683ZM130.513 345.694C135.307 337.802 154.77 310.639 205.369 290.275C213.491 287.007 234.287 278.42 243.188 274.742L246.733 283.504C237.004 287.368 218.203 294.911 210.585 298.459C210.141 298.667 209.671 298.883 209.174 299.113C197.3 304.596 169.752 317.316 147.015 352.082C140.066 352.56 134.736 350.501 130.513 345.694Z" fill="white"/>
<path d="M316.569 99.0977L295.79 105.606L281.183 58.9825C278.717 51.1069 270.301 46.7071 262.428 49.1753L259.897 49.9668C256.083 51.161 252.96 53.7712 251.109 57.3141C249.258 60.8569 248.896 64.9076 250.09 68.7223L264.697 115.346L245.796 121.269C235.679 124.439 230.026 135.249 233.196 145.366L241.878 173.078C243.462 178.866 242.591 183.986 239.287 188.301C236.653 191.741 233.395 193.445 233.385 193.452L229.817 195.242L273.761 300.114L277.612 298.665C278.764 298.232 306.044 287.788 328.751 263.037C330.01 261.667 331.229 260.278 332.409 258.873C343.829 245.271 351.573 230.1 355.456 213.695C360.785 191.188 358.792 166.395 349.532 140.01L340.663 111.702C339.127 106.8 335.776 102.791 331.223 100.411C326.674 98.0262 321.471 97.562 316.569 99.0977ZM258.243 66.1691C257.73 64.5304 257.885 62.7917 258.679 61.2733C259.473 59.7549 260.814 58.6341 262.451 58.1192L264.981 57.3277C268.36 56.2677 271.971 58.1569 273.031 61.5357L287.342 107.215L272.552 111.851L258.243 66.1691ZM245.287 155.386L336.452 126.824L340.112 138.51L248.788 166.566L245.287 155.386ZM354.073 190.073L340.171 240.478L312.768 274.464L278.198 296.354L232.226 196.945L244.421 188.115L245.981 171.902L345.472 141.336L354.073 190.073ZM332.514 114.25L333.899 118.671L242.734 147.234L241.349 142.813C239.587 137.191 242.729 131.185 248.349 129.425L319.125 107.252C321.848 106.4 324.74 106.658 327.268 107.981C329.797 109.303 331.66 111.529 332.514 114.25Z" fill="white"/>
<path d="M270.094 65.3758C269.465 63.3697 267.329 62.253 265.323 62.8815C263.317 63.5101 262.2 65.6459 262.829 67.652C263.457 69.6581 265.593 70.7749 267.599 70.1463C269.605 69.5178 270.722 67.382 270.094 65.3758Z" fill="white"/>
<path d="M345.473 141.334L245.981 171.9L244.422 188.113L232.227 196.943L278.199 296.352L312.768 274.462L340.172 240.476L354.074 190.071L345.473 141.334ZM262.172 208.405C263.39 207.239 264.619 205.944 265.816 204.518C272.521 196.533 278.222 184.413 275.38 167.34L287.893 163.496C299.266 205.354 271.713 225.549 255.16 233.627L248.611 218C252.419 216.035 257.447 212.928 262.172 208.405ZM240.612 198.905C242.171 197.722 244.055 196.045 245.807 193.831C248.939 189.871 252.117 183.534 250.939 174.847L267.124 169.875C268.942 182.587 265.369 193.394 256.466 202.038C252.641 205.75 248.501 208.376 245.294 210.084L240.612 198.905ZM258.463 241.505C265.879 237.9 276.372 231.518 284.865 221.403C285.486 220.663 286.098 219.903 286.695 219.123C292.652 211.349 296.508 202.619 298.164 193.173C299.908 183.22 299.199 172.408 296.064 160.981L306.943 157.64C314.323 176.896 314.514 194.648 307.493 210.423C300.559 226.013 287.696 236.99 278.13 243.454C272.08 247.541 266.54 250.395 262.899 252.093L258.463 241.505ZM266.205 259.985C270.123 258.177 276.091 255.12 282.694 250.682C291 245.096 298.141 238.754 303.915 231.877C308.662 226.222 312.487 220.205 315.275 213.956C323.208 196.169 323.155 176.387 315.131 155.128L325.273 152.01C334.636 177.801 334.658 201.344 325.328 222.019C316.707 241.121 301.5 254.373 290.26 262.124C282.646 267.376 275.764 270.891 271.587 272.824L266.205 259.985ZM322.66 257.036C306.128 275.146 286.486 285.336 278.384 289.044L274.895 280.718C279.347 278.678 286.67 274.959 294.884 269.318C302.235 264.269 311.159 257.039 319.165 247.504C324.443 241.218 329.321 233.927 333.085 225.604C343.346 202.918 343.465 177.324 333.452 149.499L342.757 146.64C356.834 189.868 350.08 226.998 322.66 257.036Z" fill="white"/>
<path opacity="0.84" d="M345.473 141.334L245.981 171.9L244.422 188.113L232.227 196.943L278.199 296.352L312.768 274.462L340.172 240.476L354.074 190.071L345.473 141.334ZM262.172 208.405C263.39 207.239 264.619 205.944 265.816 204.518C272.521 196.533 278.222 184.413 275.38 167.34L287.893 163.496C299.266 205.354 271.713 225.549 255.16 233.627L248.611 218C252.419 216.035 257.447 212.928 262.172 208.405ZM240.612 198.905C242.171 197.722 244.055 196.045 245.807 193.831C248.939 189.871 252.117 183.534 250.939 174.847L267.124 169.875C268.942 182.587 265.369 193.394 256.466 202.038C252.641 205.75 248.501 208.376 245.294 210.084L240.612 198.905ZM258.463 241.505C265.879 237.9 276.372 231.518 284.865 221.403C285.486 220.663 286.098 219.903 286.695 219.123C292.652 211.349 296.508 202.619 298.164 193.173C299.908 183.22 299.199 172.408 296.064 160.981L306.943 157.64C314.323 176.896 314.514 194.648 307.493 210.423C300.559 226.013 287.696 236.99 278.13 243.454C272.08 247.541 266.54 250.395 262.899 252.093L258.463 241.505ZM266.205 259.985C270.123 258.177 276.091 255.12 282.694 250.682C291 245.096 298.141 238.754 303.915 231.877C308.662 226.222 312.487 220.205 315.275 213.956C323.208 196.169 323.155 176.387 315.131 155.128L325.273 152.01C334.636 177.801 334.658 201.344 325.328 222.019C316.707 241.121 301.5 254.373 290.26 262.124C282.646 267.376 275.764 270.891 271.587 272.824L266.205 259.985ZM322.66 257.036C306.128 275.146 286.486 285.336 278.384 289.044L274.895 280.718C279.347 278.678 286.67 274.959 294.884 269.318C302.235 264.269 311.159 257.039 319.165 247.504C324.443 241.218 329.321 233.927 333.085 225.604C343.346 202.918 343.465 177.324 333.452 149.499L342.757 146.64C356.834 189.868 350.08 226.998 322.66 257.036Z" fill="white"/>
</g>
</svg>
