<svg width="238" height="205" viewBox="0 0 238 205" fill="none" xmlns="http://www.w3.org/2000/svg">
<g opacity="0.05">
<path d="M-9.98242 86.4849C-8.98794 91.6051 -6.2465 95.8205 -1.83401 99.023C-1.62505 106.329 1.91109 111.888 8.68259 115.556C9.82289 121.586 13.6338 125.886 19.7304 128.003C23.8406 129.43 27.9429 129.061 31.0567 128.582C36.7134 127.709 42.7224 126.688 50.5423 125.268C52.6981 124.876 55.0006 123.86 57.2286 122.877C59.0732 122.062 61.1641 121.139 62.3421 121.027C67.9477 120.497 84.447 125.472 90.3307 127.433L93.3149 128.427L109.624 57.5481L110.27 54.706L78.1131 47.4931C76.8375 47.0044 73.1923 44.9981 70.9893 42.5482C70.0704 41.5253 69.1663 40.5269 68.2739 39.5418C63.1187 33.8491 58.2493 28.4695 53.59 21.9623C49.9176 16.8313 48.146 11.6663 48.1765 6.17556C48.1902 3.83563 48.1414 1.52877 48.0344 -0.68292C47.9753 -1.89337 48.1635 -3.46797 48.364 -5.13361C48.665 -7.64236 48.9775 -10.2378 48.5642 -12.5266C48.0374 -15.4522 46.3516 -17.4183 43.7728 -18.1638L43.3951 -18.591L38.5795 -18.3556L38.3556 -18.3079C33.8167 -17.3447 29.8314 -14.8791 26.5112 -10.9819C23.386 -7.31655 13.1973 5.38904 13.2446 14.9622C13.2672 19.5776 14.791 23.7949 16.2169 27.3876C16.4295 27.9223 16.6465 28.4579 16.8611 28.9922C18.2039 32.3132 19.471 35.4506 19.9167 38.7815C20.3538 42.0575 18.9535 43.1367 17.6842 43.7074C14.4986 45.1445 10.9949 46.2323 7.60631 47.2851L7.07127 47.4509C5.70015 47.8775 4.29795 48.2185 2.81529 48.579C0.968876 49.0289 -0.938963 49.4932 -2.8217 50.1425C-5.62512 51.11 -7.14777 51.7934 -8.22118 53.0645C-9.45915 54.5287 -9.54035 56.1521 -9.63497 58.0302C-9.68099 58.9321 -9.73716 60.0551 -9.91752 61.4685C-10.0912 62.8229 -10.561 64.5117 -11.0597 66.2981C-12.4673 71.3478 -14.2044 77.5815 -10.2456 81.4972C-10.2132 81.9762 -10.2144 82.4968 -10.2162 83.0462C-10.2167 84.0951 -10.2183 85.2769 -9.98242 86.4849ZM-5.55303 67.8424C-4.99758 65.849 -4.47322 63.968 -4.24669 62.2016C-4.03891 60.5707 -3.97476 59.3252 -3.92416 58.3261C-3.89477 57.7429 -3.85893 57.0314 -3.79481 56.7224C-3.5335 56.5402 -2.81407 56.1944 -0.951768 55.5525C0.676651 54.9897 2.37597 54.5772 4.17237 54.1387C5.67597 53.7725 7.23149 53.3945 8.7738 52.9139L9.30695 52.7486C12.6803 51.6999 16.162 50.6139 19.5045 49.1531C38.2488 63.9225 51.8249 67.3466 64.9627 70.6576C67.4593 71.2864 70.0413 71.9371 72.6236 72.6571C78.401 74.2676 92.7448 76.5515 99.1629 77.5374L97.1506 86.2851C91.1372 84.997 75.9298 81.7141 70.1939 80.2129C48.5422 74.5515 28.3467 73.9742 15.2154 74.4872C4.43045 74.9082 -3.36867 76.0859 -6.69345 76.6687C-7.46515 74.7024 -6.45789 71.0903 -5.55303 67.8424ZM39.3288 -12.6657L41.6389 -12.7787C41.7147 -12.7623 41.7857 -12.7487 41.8489 -12.7411C42.4685 -12.6521 42.7501 -12.5684 42.9419 -11.5098C43.2024 -10.0656 42.9433 -7.90275 42.6917 -5.81124C42.4714 -3.9832 42.2455 -2.09243 42.3275 -0.400464C42.4309 1.70611 42.4765 3.90975 42.464 6.14735C42.4261 12.7909 44.6069 19.2316 48.9446 25.2924C53.7939 32.0669 58.7699 37.5628 64.0387 43.3822C64.9258 44.3626 65.8264 45.3558 66.7419 46.3735C69.9149 49.8999 74.6907 52.3644 76.381 52.946L76.5315 52.9975L103.422 59.0283L100.449 71.9491C94.3613 71.0174 79.708 68.6981 74.1597 67.1506C71.5093 66.4121 68.8922 65.7524 66.3606 65.1147C53.5027 61.8736 41.3251 58.8031 24.1328 45.5155C25.4558 43.5083 25.9754 40.9471 25.5869 38.0273C25.0469 33.979 23.5823 30.3559 22.1661 26.8525C21.9546 26.3297 21.7426 25.8049 21.5349 25.2811C20.244 22.0318 18.9841 18.5559 18.9653 14.9372C18.9362 8.88906 25.3586 -0.80774 30.8663 -7.27028C33.327 -10.1639 36.1003 -11.9292 39.3288 -12.6657ZM61.8051 115.338C61.2318 115.391 60.641 115.509 60.0356 115.671C58.4251 116.103 56.7081 116.861 54.92 117.65C52.9991 118.499 51.0102 119.377 49.5217 119.647C41.7542 121.057 35.7906 122.072 30.1868 122.936C27.7258 123.316 24.5245 123.621 21.6046 122.608C17.467 121.17 15.1467 118.656 14.3409 114.72C37.8216 105.794 55.9999 109.062 63.938 110.489C64.3048 110.556 64.6539 110.618 64.9819 110.677C70.3211 111.619 83.4821 114.69 90.2417 116.288L89.1462 121.048C82.6852 119.01 68.1491 114.738 61.8051 115.338ZM-4.37191 85.3937C-4.50068 84.7304 -4.49948 83.92 -4.4981 83.0647C-4.49721 82.7482 -4.49734 82.4279 -4.50141 82.1005C-0.828281 81.508 6.27462 80.5495 15.5791 80.1927C28.2887 79.705 47.831 80.2736 68.7475 85.7423C74.6452 87.2838 89.7576 90.5473 95.8678 91.8543L94.227 98.9804C87.97 97.5902 73.2474 94.3121 67.5519 92.9918C44.6752 87.6852 27.5441 88.7292 17.2008 90.5397C9.90204 91.818 4.8449 93.6341 2.08046 94.8156C1.97955 94.7284 1.87586 94.646 1.76798 94.5708C-1.62674 92.1893 -3.63496 89.1873 -4.37191 85.3937ZM3.97476 100.225C9.62968 97.7387 30.7156 90.3157 66.2592 98.5617C71.9639 99.8856 86.6556 103.156 92.9453 104.553L91.5277 110.716C84.7129 109.102 71.5154 106.025 65.9791 105.048C65.656 104.991 65.315 104.93 64.9549 104.865C56.3436 103.316 36.366 99.7219 10.5693 110.056C6.5771 107.653 4.44552 104.48 3.97476 100.225Z" fill="white"/>
<path d="M200.533 36.429L186.648 32.0267L196.524 0.869745C198.193 -4.39278 195.268 -10.0322 190.006 -11.6992L188.316 -12.2358C185.767 -13.0444 183.054 -12.8114 180.681 -11.5796C178.307 -10.3478 176.555 -8.26645 175.747 -5.71761L165.87 25.4393L153.239 21.4357C146.478 19.2929 139.233 23.05 137.091 29.8107L131.22 48.3293C129.868 52.1092 127.427 54.5813 123.961 55.6794C121.198 56.5544 118.759 56.2388 118.751 56.2389L116.108 55.8512L99.9703 130.186L102.637 130.869C103.434 131.074 122.392 135.812 144.331 130.956C145.547 130.687 146.747 130.394 147.933 130.076C159.409 127.001 169.472 121.657 177.893 114.154C189.446 103.862 197.863 89.5093 202.908 71.4956L208.904 52.5781C209.943 49.3026 209.644 45.82 208.061 42.7693C206.483 39.7175 203.809 37.4673 200.533 36.429ZM181.194 -3.99017C181.542 -5.08508 182.294 -5.97834 183.311 -6.50604C184.329 -7.03375 185.494 -7.13366 186.588 -6.78826L188.279 -6.2516C190.537 -5.53663 191.792 -3.1162 191.077 -0.85769L181.401 29.6682L171.516 26.5362L181.194 -3.99017ZM139.874 39.9402L200.797 59.2518L198.32 67.0607L137.505 47.4103L139.874 39.9402ZM186.195 100.677L159.243 122.971L131.188 131.089L103.845 129.827L116.776 57.7088L126.846 57.5465L133.92 49.2586L200.174 70.6653L186.195 100.677ZM203.461 50.8497L202.524 53.8042L141.602 34.4926L142.538 31.5381C143.729 27.781 147.755 25.6944 151.51 26.8857L198.806 41.8785C200.626 42.456 202.112 43.7065 202.99 45.4013C203.869 47.0961 204.036 49.0305 203.461 50.8497Z" fill="white"/>
<path d="M187.994 0.120705C188.419 -1.21993 187.677 -2.6512 186.336 -3.07615C184.996 -3.5011 183.564 -2.7588 183.14 -1.41816C182.715 -0.0775302 183.457 1.35376 184.798 1.77871C186.138 2.20366 187.569 1.46134 187.994 0.120705Z" fill="white"/>
<path d="M200.175 70.6647L133.921 49.2581L126.848 57.5459L116.777 57.7082L103.846 129.826L131.189 131.088L159.245 122.971L186.197 100.676L200.175 70.6647ZM128.793 75.476C129.908 75.3037 131.079 75.0656 132.282 74.7432C139.019 72.9379 146.793 68.482 151.784 58.0343L160.116 60.7272C150.295 88.0314 127.448 88.5319 115.276 86.6107L117.681 75.5338C120.522 75.9173 124.469 76.143 128.793 75.476ZM120.62 61.9998C121.929 61.9491 123.604 61.7531 125.414 61.2111C128.65 60.2421 132.822 57.9876 135.508 52.7749L146.286 56.2571C142.406 63.9218 136.303 68.4749 128.108 69.7974C124.588 70.3653 121.312 70.2168 118.899 69.9227L120.62 61.9998ZM114.065 92.1954C119.513 93.0637 127.712 93.5908 136.246 91.304C136.871 91.1367 137.497 90.9545 138.123 90.7561C144.37 88.7803 149.832 85.4743 154.363 80.9324C159.136 76.1459 162.895 69.948 165.559 62.4825L172.803 64.8241C169.462 78.2086 162.758 88.0115 152.86 93.9651C143.08 99.8503 131.82 100.933 124.097 100.807C119.213 100.726 115.083 100.166 112.436 99.6999L114.065 92.1954ZM111.221 105.294C114.062 105.806 118.505 106.419 123.826 106.519C130.522 106.643 136.868 105.906 142.67 104.351C147.441 103.073 151.845 101.242 155.77 98.8863C166.94 92.1798 174.499 81.3174 178.254 66.5874L185.009 68.7685C180.249 86.4958 171.231 99.4078 158.187 107.161C146.136 114.324 132.718 115.755 123.585 115.692C117.397 115.651 112.277 114.937 109.246 114.395L111.221 105.294ZM143.295 125.331C127.287 128.916 112.613 126.967 106.75 125.892L108.032 119.99C111.254 120.58 116.694 121.35 123.36 121.409C129.326 121.461 136.99 120.921 145.035 118.765C150.339 117.344 155.809 115.22 161.064 112.102C175.389 103.603 185.271 89.6206 190.455 70.5289L196.652 72.5311C187.787 101.623 169.844 119.384 143.295 125.331Z" fill="white"/>
<path opacity="0.84" d="M200.175 70.6647L133.921 49.2581L126.848 57.5459L116.777 57.7082L103.846 129.826L131.189 131.088L159.245 122.971L186.197 100.676L200.175 70.6647ZM128.793 75.476C129.908 75.3037 131.079 75.0656 132.282 74.7432C139.019 72.9379 146.793 68.482 151.784 58.0343L160.116 60.7272C150.295 88.0314 127.448 88.5319 115.276 86.6107L117.681 75.5338C120.522 75.9173 124.469 76.143 128.793 75.476ZM120.62 61.9998C121.929 61.9491 123.604 61.7531 125.414 61.2111C128.65 60.2421 132.822 57.9876 135.508 52.7749L146.286 56.2571C142.406 63.9218 136.303 68.4749 128.108 69.7974C124.588 70.3653 121.312 70.2168 118.899 69.9227L120.62 61.9998ZM114.065 92.1954C119.513 93.0637 127.712 93.5908 136.246 91.304C136.871 91.1367 137.497 90.9545 138.123 90.7561C144.37 88.7803 149.832 85.4743 154.363 80.9324C159.136 76.1459 162.895 69.948 165.559 62.4825L172.803 64.8241C169.462 78.2086 162.758 88.0115 152.86 93.9651C143.08 99.8503 131.82 100.933 124.097 100.807C119.213 100.726 115.083 100.166 112.436 99.6999L114.065 92.1954ZM111.221 105.294C114.062 105.806 118.505 106.419 123.826 106.519C130.522 106.643 136.868 105.906 142.67 104.351C147.441 103.073 151.845 101.242 155.77 98.8863C166.94 92.1798 174.499 81.3174 178.254 66.5874L185.009 68.7685C180.249 86.4958 171.231 99.4078 158.187 107.161C146.136 114.324 132.718 115.755 123.585 115.692C117.397 115.651 112.277 114.937 109.246 114.395L111.221 105.294ZM143.295 125.331C127.287 128.916 112.613 126.967 106.75 125.892L108.032 119.99C111.254 120.58 116.694 121.35 123.36 121.409C129.326 121.461 136.99 120.921 145.035 118.765C150.339 117.344 155.809 115.22 161.064 112.102C175.389 103.603 185.271 89.6206 190.455 70.5289L196.652 72.5311C187.787 101.623 169.844 119.384 143.295 125.331Z" fill="white"/>
</g>
</svg>
