<svg width="179" height="182" viewBox="0 0 179 182" fill="none" xmlns="http://www.w3.org/2000/svg">
<g opacity="0.03">
<path d="M131.516 144.678C128.869 146.424 125.873 147.026 122.605 146.472C119.344 149.488 115.425 150.317 110.953 148.936C107.849 151.005 104.361 151.179 100.849 149.432C98.481 148.254 96.8964 146.315 95.7803 144.759C93.7537 141.931 91.6413 138.888 88.9322 134.888C88.1856 133.785 87.6479 132.352 87.1271 130.967C86.6964 129.82 86.2082 128.519 85.7557 127.96C83.6021 125.3 74.4245 120.25 71.0704 118.529L69.3696 117.656L93.2147 80.429L94.174 78.9396L110.983 89.8372C111.737 90.1833 114.159 90.913 116.16 90.8279C116.995 90.7919 117.813 90.7599 118.62 90.7285C123.285 90.5462 127.692 90.373 132.5 89.629C136.29 89.0416 139.286 87.6144 141.658 85.266C142.668 84.2648 143.691 83.305 144.697 82.4108C145.247 81.9217 145.851 81.1703 146.489 80.3749C147.451 79.1772 148.445 77.9376 149.615 77.1437C151.109 76.1283 152.68 76.0242 154.101 76.8271L154.447 76.8094L156.393 79.0008L156.467 79.1183C157.979 81.4991 158.603 84.2785 158.323 87.3778C158.06 90.2938 156.876 100.122 152.698 104.173C150.684 106.126 148.205 107.258 146.038 108.167C145.715 108.302 145.39 108.435 145.067 108.569C143.054 109.399 141.152 110.183 139.516 111.406C137.908 112.609 138.035 113.676 138.327 114.47C139.057 116.465 140.075 118.449 141.059 120.368L141.214 120.671C141.612 121.448 142.061 122.202 142.535 122.999C143.124 123.992 143.734 125.018 144.253 126.112C145.025 127.741 145.376 128.693 145.28 129.7C145.171 130.86 144.501 131.586 143.725 132.426C143.353 132.829 142.889 133.331 142.352 134.011C141.838 134.662 141.304 135.584 140.741 136.561C139.146 139.319 137.178 142.725 133.794 142.671C133.572 142.861 133.346 143.083 133.108 143.317C132.653 143.763 132.141 144.267 131.516 144.678ZM137.728 134.826C138.357 133.737 138.951 132.709 139.622 131.86C140.242 131.076 140.756 130.518 141.168 130.071C141.409 129.811 141.702 129.492 141.809 129.333C141.777 129.142 141.622 128.683 141.108 127.601C140.66 126.654 140.117 125.741 139.543 124.774C139.063 123.966 138.565 123.129 138.118 122.255L137.963 121.953C136.984 120.042 135.975 118.068 135.187 115.996C120.802 114.137 113.541 109.697 106.516 105.4C105.181 104.583 103.8 103.738 102.389 102.923C99.2326 101.099 92.1404 95.8413 88.9828 93.4733L86.0396 98.0676C89.1565 100.131 97.0497 105.339 100.141 107.192C111.808 114.187 120.648 122.712 126.01 128.633C130.414 133.495 133.219 137.383 134.38 139.075C135.562 138.574 136.702 136.6 137.728 134.826ZM153.603 81.0953L152.67 80.044C152.63 80.0181 152.594 79.993 152.564 79.9688C152.262 79.7375 152.106 79.6509 151.564 80.0178C150.826 80.5189 149.997 81.5512 149.196 82.55C148.496 83.4231 147.771 84.3253 147.001 85.0093C146.042 85.8603 145.066 86.7777 144.099 87.7348C141.23 90.5767 137.506 92.3688 133.029 93.0626C128.025 93.8378 123.522 94.0142 118.754 94.201C117.951 94.2328 117.136 94.264 116.305 94.2993C113.424 94.4211 110.323 93.3952 109.351 92.9085L109.265 92.865L95.2095 83.752L90.8629 90.5383C93.8563 92.7856 101.095 98.1628 104.127 99.9142C105.575 100.751 106.975 101.607 108.328 102.435C115.204 106.641 121.717 110.623 134.799 112.439C135.108 111.01 135.999 109.695 137.432 108.622C139.42 107.135 141.616 106.23 143.74 105.355C144.057 105.225 144.375 105.094 144.691 104.961C146.651 104.14 148.697 103.209 150.276 101.678C152.915 99.1184 154.395 92.2053 154.859 87.065C155.069 84.7657 154.656 82.8106 153.603 81.0953ZM88.4549 125.773C88.6754 126.045 88.8757 126.351 89.0627 126.683C89.5602 127.566 89.9613 128.634 90.379 129.746C90.8271 130.942 91.2918 132.179 91.8074 132.94C94.4985 136.913 96.5943 139.935 98.6019 142.736C99.4836 143.966 100.713 145.486 102.395 146.323C104.779 147.509 106.857 147.447 108.909 146.123C102.8 132.13 93.6491 125.625 89.6533 122.785C89.4682 122.654 89.293 122.529 89.1278 122.411C86.4479 120.493 79.5173 116.084 75.9484 113.828L74.3472 116.328C77.9798 118.267 86.0174 122.763 88.4549 125.773ZM129.603 141.777C129.946 141.551 130.298 141.206 130.669 140.842C130.806 140.707 130.945 140.571 131.089 140.433C129.784 138.586 127.179 135.094 123.377 130.901C118.184 125.174 109.626 116.929 98.355 110.171C95.1773 108.266 87.3329 103.091 84.1666 100.993L81.7697 104.736C85.0345 106.862 92.7195 111.862 95.7151 113.774C107.749 121.452 114.581 129.336 118.194 134.597C120.743 138.311 122.105 141.279 122.768 142.982C122.848 142.989 122.928 142.999 123.007 143.014C125.485 143.475 127.643 143.071 129.603 141.777ZM119.613 144.46C118.288 140.947 112.544 128.633 93.8461 116.704C90.845 114.79 83.1766 109.8 79.8946 107.663L77.8213 110.9C81.4206 113.173 88.3695 117.596 91.1485 119.584C91.3103 119.701 91.4821 119.822 91.6634 119.951C95.9984 123.032 106.056 130.18 112.539 145.777C115.28 146.489 117.565 146.065 119.613 144.46Z" fill="white"/>
<path d="M63.7232 31.9671L71.5403 36.1249L80.8707 18.5849C82.4463 15.6221 86.1394 14.494 89.1013 16.0702L90.0532 16.5761C91.4884 17.3391 92.5408 18.6162 93.0153 20.1708C93.4898 21.7254 93.331 23.3715 92.568 24.8066L83.2376 42.3465L90.3484 46.1295C94.1542 48.1542 95.6037 52.8983 93.579 56.7041L88.0335 67.1293C86.9669 69.324 86.9315 71.4354 87.9288 73.4078C88.7238 74.9798 89.8983 75.9048 89.9016 75.9084L91.1937 76.891L65.7753 115.513L64.3446 114.646C63.9166 114.387 53.796 108.169 46.5745 96.5759C46.1742 95.9338 45.7909 95.2877 45.4245 94.6375C41.8793 88.3461 39.9206 81.7026 39.5975 74.8553C39.1536 65.4606 41.807 55.7011 47.4845 45.8492L53.1498 35.1997C54.1307 33.3558 55.7701 32.0044 57.768 31.3942C59.7648 30.7819 61.8792 30.9862 63.7232 31.9671ZM89.501 23.1755C89.8288 22.559 89.8968 21.8525 89.6932 21.1861C89.4896 20.5198 89.0376 19.9714 88.4221 19.6431L87.4702 19.1372C86.1991 18.4605 84.6145 18.945 83.9377 20.216L74.7962 37.4006L80.3601 40.3611L89.501 23.1755ZM87.9961 59.8032L53.6997 41.559L51.3615 45.9554L85.7595 64.009L87.9961 59.8032ZM41.9194 65.5177L43.7001 86.7041L52.1067 102.34L64.2833 113.678L90.1033 77.3913L85.8907 72.9487L86.4817 66.3522L49.0079 46.6835L41.9194 65.5177ZM56.2156 36.8288L55.3308 38.492L89.6272 56.7362L90.512 55.073C91.6372 52.958 90.8313 50.3223 88.7169 49.1981L62.0911 35.0347C61.0664 34.49 59.8914 34.3766 58.7817 34.7158C57.6721 35.0551 56.7608 35.8051 56.2156 36.8288Z" fill="white"/>
<path d="M84.824 21.9711C85.2255 21.2164 86.1628 20.9301 86.9175 21.3315C87.6722 21.733 87.9585 22.6703 87.557 23.425C87.1555 24.1797 86.2183 24.466 85.4636 24.0646C84.7089 23.6631 84.4225 22.7258 84.824 21.9711Z" fill="white"/>
<path d="M49.0072 46.6828L86.4811 66.3514L85.89 72.948L90.1026 77.3905L64.2826 113.677L52.106 102.34L43.6994 86.7033L41.9188 65.517L49.0072 46.6828ZM77.2759 79.7285C76.8766 79.1711 76.4822 78.5614 76.1105 77.9018C74.0291 74.2082 72.6582 68.9372 75.0728 62.3265L70.3597 59.8533C62.679 75.7307 72.1783 85.8654 78.1891 90.3342L81.977 84.5792C80.6023 83.5085 78.8254 81.8902 77.2759 79.7285ZM86.6044 77.5467C86.0699 76.9568 85.4423 76.1457 84.9081 75.1294C83.9529 73.3122 83.1574 70.5413 84.2788 67.1579L78.1828 63.9582C76.5042 68.9028 77.1224 73.4896 80.0333 77.6109C81.284 79.3814 82.7417 80.7408 83.8956 81.6637L86.6044 77.5467ZM76.2789 93.2353C73.5849 91.2387 69.8691 87.9023 67.2326 83.2235C67.0397 82.8812 66.8523 82.5316 66.6722 82.1752C64.8735 78.6221 63.9863 74.8441 64.0319 70.9448C64.0804 66.8362 65.1736 62.568 67.2827 58.2361L63.1847 56.0859C58.793 63.229 57.387 70.3095 59.0111 77.1402C60.6147 83.8903 64.9334 89.2411 68.2724 92.5409C70.3846 94.6275 72.3847 96.1833 73.7128 97.1345L76.2789 93.2353ZM71.8002 100.041C70.3697 99.0252 68.2138 97.3565 65.907 95.088C63.0057 92.2332 60.627 89.1637 58.8345 85.9826C57.3607 83.3671 56.2827 80.6757 55.6364 77.9693C53.7984 70.2663 55.301 62.364 60.1007 54.4685L56.2808 52.4627C50.6068 62.0693 48.8344 71.4767 51.0147 80.4388C53.0293 88.7188 58.1146 95.1543 62.026 99.0942C64.6756 101.764 67.1632 103.684 68.6878 104.769L71.8002 100.041ZM49.458 94.6337C54.7088 103.11 61.7959 108.654 64.7562 110.743L66.7741 107.676C65.1477 106.528 62.4995 104.493 59.6393 101.623C57.0794 99.0544 54.0543 95.4966 51.5689 91.0859C49.9305 88.1782 48.5268 84.899 47.6459 81.2907C45.2442 71.455 47.1138 61.2172 53.2001 50.8462L49.6952 49.0067C40.8311 65.2292 40.7492 80.5746 49.458 94.6337Z" fill="white"/>
<path opacity="0.84" d="M49.0072 46.6828L86.4811 66.3514L85.89 72.948L90.1026 77.3905L64.2826 113.677L52.106 102.34L43.6994 86.7033L41.9188 65.517L49.0072 46.6828ZM77.2759 79.7285C76.8766 79.1711 76.4822 78.5614 76.1105 77.9018C74.0291 74.2082 72.6582 68.9372 75.0728 62.3265L70.3597 59.8533C62.679 75.7307 72.1783 85.8654 78.1891 90.3342L81.977 84.5792C80.6023 83.5085 78.8254 81.8902 77.2759 79.7285ZM86.6044 77.5467C86.0699 76.9568 85.4423 76.1457 84.9081 75.1294C83.9529 73.3122 83.1574 70.5413 84.2788 67.1579L78.1828 63.9582C76.5042 68.9028 77.1224 73.4896 80.0333 77.6109C81.284 79.3814 82.7417 80.7408 83.8956 81.6637L86.6044 77.5467ZM76.2789 93.2353C73.5849 91.2387 69.8691 87.9023 67.2326 83.2235C67.0397 82.8812 66.8523 82.5316 66.6722 82.1752C64.8735 78.6221 63.9863 74.8441 64.0319 70.9448C64.0804 66.8362 65.1736 62.568 67.2827 58.2361L63.1847 56.0859C58.793 63.229 57.387 70.3095 59.0111 77.1402C60.6147 83.8903 64.9334 89.2411 68.2724 92.5409C70.3846 94.6275 72.3847 96.1833 73.7128 97.1345L76.2789 93.2353ZM71.8002 100.041C70.3697 99.0252 68.2138 97.3565 65.907 95.088C63.0057 92.2332 60.627 89.1637 58.8345 85.9826C57.3607 83.3671 56.2827 80.6757 55.6364 77.9693C53.7984 70.2663 55.301 62.364 60.1007 54.4685L56.2808 52.4627C50.6068 62.0693 48.8344 71.4767 51.0147 80.4388C53.0293 88.7188 58.1146 95.1543 62.026 99.0942C64.6756 101.764 67.1632 103.684 68.6878 104.769L71.8002 100.041ZM49.458 94.6337C54.7088 103.11 61.7959 108.654 64.7562 110.743L66.7741 107.676C65.1477 106.528 62.4995 104.493 59.6393 101.623C57.0794 99.0544 54.0543 95.4966 51.5689 91.0859C49.9305 88.1782 48.5268 84.899 47.6459 81.2907C45.2442 71.455 47.1138 61.2172 53.2001 50.8462L49.6952 49.0067C40.8311 65.2292 40.7492 80.5746 49.458 94.6337Z" fill="white"/>
</g>
</svg>
