<svg width="279" height="268" viewBox="0 0 279 268" fill="none" xmlns="http://www.w3.org/2000/svg">
<g opacity="0.04">
<path d="M230.993 128.287C233.535 135.666 233.137 143.18 229.814 150.632C235.01 160.256 234.587 170.106 228.556 179.927C231.59 188.594 229.869 197.018 223.551 204.323C219.292 209.247 213.7 211.839 209.306 213.547C201.322 216.648 192.772 219.822 181.575 223.833C178.488 224.938 174.743 225.343 171.121 225.736C168.121 226.061 164.72 226.428 163.11 227.165C155.448 230.672 137.789 249.464 131.631 256.408L128.508 259.929L54.3399 180.277L51.3759 177.077L87.6528 143.67C88.9403 142.082 92.163 136.754 93.185 131.931C93.6104 129.918 94.0351 127.948 94.4545 126.003C96.876 114.769 99.1613 104.154 100.331 92.2349C101.251 82.8377 99.6823 74.8187 95.5345 67.7258C93.766 64.7037 92.1033 61.6776 90.5872 58.7313C89.7581 57.1184 88.3361 55.2187 86.83 53.2101C84.5628 50.1842 82.2158 47.0544 81.039 43.7791C79.5328 39.5936 80.2463 35.7842 83.0306 32.8886L83.2004 32.0523L89.6172 28.7544L89.943 28.6488C96.5458 26.501 103.555 26.7143 110.774 29.2806C117.567 31.6924 140.277 40.5348 147.378 52.9763C150.802 58.9746 151.983 65.5801 152.823 71.3028C152.948 72.1549 153.067 73.0113 153.189 73.8642C153.934 79.1728 154.639 84.1867 156.554 88.8367C158.438 93.4094 161.06 93.7602 163.132 93.55C168.336 93.029 173.69 91.8171 178.87 90.6462L179.687 90.4607C181.783 89.9876 183.855 89.3805 186.047 88.7384C188.776 87.9398 191.596 87.1141 194.522 86.5469C198.878 85.7031 201.363 85.4495 203.705 86.2937C206.405 87.2648 207.725 89.308 209.253 91.671C209.987 92.8055 210.9 94.2188 212.191 95.9154C213.43 97.5407 215.302 99.3779 217.285 101.32C222.888 106.811 229.803 113.589 227.602 121.626C227.919 122.271 228.31 122.945 228.723 123.655C229.509 125.014 230.395 126.545 230.993 128.287ZM211.304 107.441C209.093 105.274 207.006 103.228 205.391 101.108C203.901 99.1504 202.886 97.5843 202.073 96.3275C201.599 95.5936 201.02 94.6983 200.706 94.3459C200.231 94.3052 199.04 94.3954 196.146 94.957C193.615 95.446 191.104 96.1829 188.448 96.9587C186.225 97.6092 183.926 98.2831 181.568 98.8143L180.753 98.999C175.597 100.164 170.273 101.362 164.848 101.969C151.607 135.134 136.575 149.729 122.027 163.85C119.262 166.533 116.403 169.308 113.595 172.173C107.313 178.583 90.4328 192.275 82.8531 198.355L92.006 208.186C98.8352 202.017 116.087 186.384 122.397 180.147C146.22 156.61 171.96 140.752 189.361 131.592C203.653 124.068 214.641 119.759 219.386 118.026C218.915 114.901 214.907 110.973 211.304 107.441ZM92.9034 36.6887L89.8252 38.2708C89.7392 38.3488 89.6574 38.4195 89.5811 38.4766C88.8447 39.0556 88.5424 39.3748 89.0859 40.8901C89.8289 42.9566 91.7829 45.5657 93.6739 48.0879C95.3271 50.2921 97.0345 52.5734 98.1942 54.8275C99.6365 57.6348 101.226 60.5247 102.917 63.4151C107.936 71.9963 109.929 81.9749 108.842 93.0747C107.627 105.482 105.29 116.328 102.817 127.812C102.401 129.746 101.976 131.707 101.551 133.711C100.078 140.655 95.7327 147.422 93.9774 149.44L93.8209 149.62L63.4849 177.555L77.0056 192.075C84.1972 186.313 101.452 172.343 107.484 166.187C110.366 163.246 113.264 160.433 116.068 157.713C130.306 143.892 143.79 130.802 156.128 100.718C152.912 99.1068 150.322 96.1764 148.641 92.1019C146.312 86.4515 145.499 80.6604 144.713 75.0606C144.596 74.2248 144.478 73.3862 144.355 72.5519C143.597 67.3752 142.629 61.9279 139.946 57.2242C135.458 49.3645 119.88 41.6033 107.907 37.3492C102.553 35.4404 97.6384 35.2277 92.9034 36.6887ZM159.549 219.39C160.332 219.031 161.186 218.741 162.091 218.498C164.502 217.852 167.294 217.55 170.201 217.235C173.326 216.898 176.561 216.548 178.692 215.784C189.813 211.8 198.3 208.652 206.21 205.581C209.683 204.232 214.06 202.231 217.086 198.734C221.372 193.775 222.498 188.78 220.597 183.076C183.489 189.077 162.377 206.914 153.157 214.703C152.732 215.064 152.326 215.405 151.945 215.727C145.731 220.943 130.972 234.769 123.408 241.898L128.389 247.247C135.238 239.772 150.878 223.359 159.549 219.39ZM222.906 131.07C222.576 130.114 221.968 129.065 221.327 127.958C221.089 127.548 220.849 127.133 220.61 126.706C215.406 128.686 205.484 132.758 193.159 139.258C176.323 148.135 151.423 163.494 128.408 186.231C121.919 192.641 104.776 208.178 97.8352 214.443L105.294 222.45C112.362 215.967 128.989 200.704 135.382 194.731C161.058 170.737 184.04 159.273 198.799 153.88C209.214 150.076 217.127 148.646 221.593 148.108C221.659 147.92 221.732 147.735 221.815 147.557C224.433 141.931 224.789 136.538 222.906 131.07ZM223.186 156.536C213.997 157.545 181.117 163.702 141.225 200.982C134.822 206.966 118.229 222.196 111.124 228.714L117.572 235.639C125.196 228.448 139.997 214.587 146.441 209.178C146.817 208.863 147.213 208.528 147.631 208.175C157.632 199.724 180.833 180.119 221.995 174.21C225.371 168.109 225.759 162.402 223.186 156.536Z" fill="white"/>
<path d="M-79.2748 220.927L-64.5744 204.833L-100.685 171.845C-106.786 166.274 -107.214 156.777 -101.642 150.68L-99.8533 148.72C-97.1552 145.765 -93.4656 144.037 -89.4681 143.858C-85.4706 143.678 -81.6427 145.064 -78.6878 147.763L-42.5767 180.75L-29.2024 166.111C-22.0443 158.275 -9.8445 157.724 -2.00919 164.882L19.4543 184.489C24.0346 188.376 29.0477 189.753 34.3613 188.583C38.5966 187.649 41.5215 185.415 41.5321 185.409L44.6661 182.93L121.198 267.188L118.254 270.068C117.373 270.93 96.3504 291.256 64.2854 301.377C62.5092 301.939 60.7337 302.457 58.9589 302.933C41.7866 307.534 24.7458 308.137 8.22043 304.715C-14.4531 300.021 -36.0999 287.719 -56.1156 268.148L-78.0405 248.119C-81.8368 244.651 -84.0556 239.914 -84.2872 234.777C-84.5246 229.641 -82.7429 224.724 -79.2748 220.927ZM-84.455 154.077C-85.7243 152.918 -87.3676 152.323 -89.0811 152.401C-90.7946 152.478 -92.3789 153.22 -93.5388 154.487L-95.3279 156.447C-97.7198 159.063 -97.5347 163.139 -94.9183 165.531L-59.5388 197.851L-49.0727 186.396L-84.455 154.077ZM1.96248 180.092L-62.5401 250.701L-53.4885 258.969L10.6217 188L1.96248 180.092ZM-12.6233 293.461L38.986 302.187L81.4177 291.715L115.908 269.622L45.1914 185.836L32.0189 193.161L16.6512 187.713L-53.1935 265.027L-12.6233 293.461ZM-72.279 241.806L-68.8547 244.934L-4.35209 174.325L-7.77642 171.197C-12.1308 167.219 -18.909 167.527 -22.8842 171.88L-72.9595 226.697C-74.8856 228.807 -75.8756 231.54 -75.746 234.393C-75.6165 237.247 -74.3861 239.879 -72.279 241.806Z" fill="white"/>
<path d="M-53.1953 265.027L16.6495 187.713L32.0171 193.161L45.1896 185.837L115.907 269.622L81.4159 291.715L38.9842 302.187L-12.6251 293.461L-53.1953 265.027ZM42.911 217.853C41.3374 218.464 39.6421 219.032 37.8417 219.514C27.7599 222.215 14.3518 222.257 0.0669447 212.452L-8.71627 222.176C24.4407 250.212 54.4234 233.766 68.7595 222.169L57.3558 209.614C53.961 212.236 49.0143 215.482 42.911 217.853ZM43.42 194.274C41.6862 195.187 39.368 196.187 36.6175 196.838C31.6994 198.004 24.6052 198.204 17.224 193.458L5.86182 206.035C16.6245 213.065 27.9403 214.399 39.55 209.982C44.5373 208.084 48.6715 205.44 51.5786 203.254L43.42 194.274ZM74.5077 228.501C68.0972 233.702 57.8665 240.52 45.0954 243.942C44.161 244.192 43.2127 244.425 42.2526 244.636C32.6789 246.75 23.1271 246.552 13.8572 244.056C4.08986 241.424 -5.41836 236.204 -14.4565 228.523L-22.0928 236.978C-7.74895 251.824 8.27375 259.512 25.5559 259.821C42.6335 260.13 58.0367 253.109 67.9496 247.167C74.2184 243.408 79.1526 239.591 82.2341 237.007L74.5077 228.501ZM87.9938 243.347C84.6955 246.136 79.3964 250.255 72.5748 254.367C63.9911 259.537 55.2154 263.33 46.5324 265.656C39.3934 267.569 32.3157 268.492 25.4666 268.376C5.97346 268.042 -11.9496 259.621 -27.8378 243.341L-34.9594 251.222C-15.5266 270.634 5.82016 280.62 28.5254 280.908C49.5026 281.174 67.9618 272.989 79.7512 266.074C87.7386 261.39 93.8411 256.635 97.3624 253.664L87.9938 243.347ZM61.4201 293.312C84.8471 285.981 102.406 272.476 109.199 266.696L103.123 260.007C99.3876 263.182 92.914 268.251 84.32 273.314C76.6276 277.845 66.2918 282.88 54.2529 286.106C46.3162 288.232 37.6373 289.572 28.4941 289.463C3.57022 289.168 -19.697 278.441 -40.7002 257.578L-47.2325 264.809C-13.9773 295.878 22.5637 305.47 61.4201 293.312Z" fill="white"/>
<path opacity="0.84" d="M-53.1953 265.027L16.6495 187.713L32.0171 193.161L45.1896 185.837L115.907 269.622L81.4159 291.715L38.9842 302.187L-12.6251 293.461L-53.1953 265.027ZM42.911 217.853C41.3374 218.464 39.6421 219.032 37.8417 219.514C27.7599 222.215 14.3518 222.257 0.0669447 212.452L-8.71627 222.176C24.4407 250.212 54.4234 233.766 68.7595 222.169L57.3558 209.614C53.961 212.236 49.0143 215.482 42.911 217.853ZM43.42 194.274C41.6862 195.187 39.368 196.187 36.6175 196.838C31.6994 198.004 24.6052 198.204 17.224 193.458L5.86182 206.035C16.6245 213.065 27.9403 214.399 39.55 209.982C44.5373 208.084 48.6715 205.44 51.5786 203.254L43.42 194.274ZM74.5077 228.501C68.0972 233.702 57.8665 240.52 45.0954 243.942C44.161 244.192 43.2127 244.425 42.2526 244.636C32.6789 246.75 23.1271 246.552 13.8572 244.056C4.08986 241.424 -5.41836 236.204 -14.4565 228.523L-22.0928 236.978C-7.74895 251.824 8.27375 259.512 25.5559 259.821C42.6335 260.13 58.0367 253.109 67.9496 247.167C74.2184 243.408 79.1526 239.591 82.2341 237.007L74.5077 228.501ZM87.9938 243.347C84.6955 246.136 79.3964 250.255 72.5748 254.367C63.9911 259.537 55.2154 263.33 46.5324 265.656C39.3934 267.569 32.3157 268.492 25.4666 268.376C5.97346 268.042 -11.9496 259.621 -27.8378 243.341L-34.9594 251.222C-15.5266 270.634 5.82016 280.62 28.5254 280.908C49.5026 281.174 67.9618 272.989 79.7512 266.074C87.7386 261.39 93.8411 256.635 97.3624 253.664L87.9938 243.347ZM61.4201 293.312C84.8471 285.981 102.406 272.476 109.199 266.696L103.123 260.007C99.3876 263.182 92.914 268.251 84.32 273.314C76.6276 277.845 66.2918 282.88 54.2529 286.106C46.3162 288.232 37.6373 289.572 28.4941 289.463C3.57022 289.168 -19.697 278.441 -40.7002 257.578L-47.2325 264.809C-13.9773 295.878 22.5637 305.47 61.4201 293.312Z" fill="white"/>
</g>
</svg>
