<svg width="1920" height="311" viewBox="0 0 1920 311" fill="none" xmlns="http://www.w3.org/2000/svg">
<mask id="mask0" mask-type="alpha" maskUnits="userSpaceOnUse" x="0" y="0" width="1920" height="311">
<rect width="1920" height="311" fill="#3576CB"/>
</mask>
<g mask="url(#mask0)">
<g opacity="0.4">
<path d="M83.6129 37.4927C84.5035 42.0779 86.9585 45.8529 90.91 48.7208C91.0971 55.2632 94.2637 60.2417 100.328 63.5266C101.349 68.9264 104.762 72.7774 110.221 74.6729C113.902 75.9506 117.576 75.6203 120.364 75.1911C125.43 74.4093 130.811 73.4955 137.814 72.2239C139.744 71.8729 141.806 70.9623 143.801 70.0823C145.453 69.3528 147.326 68.5259 148.381 68.4259C153.4 67.9506 168.176 72.4059 173.445 74.1624L176.117 75.0525L190.722 11.5793L191.301 9.03422L162.504 2.57492C161.361 2.13732 158.097 0.340605 156.124 -1.85331C155.301 -2.76935 154.492 -3.66335 153.693 -4.54554C149.076 -9.64347 144.715 -14.461 140.543 -20.2882C137.254 -24.8832 135.668 -29.5085 135.695 -34.4255C135.707 -36.521 135.664 -38.5868 135.568 -40.5674C135.515 -41.6514 135.683 -43.0615 135.863 -44.5531C136.133 -46.7997 136.412 -49.124 136.042 -51.1736C135.571 -53.7935 134.061 -55.5542 131.752 -56.2218L131.413 -56.6044L127.101 -56.3936L126.9 -56.3508C122.836 -55.4883 119.267 -53.2803 116.294 -49.7903C113.495 -46.5079 104.371 -35.1299 104.413 -26.557C104.433 -22.4238 105.798 -18.6471 107.075 -15.4298C107.265 -14.951 107.46 -14.4713 107.652 -13.9929C108.854 -11.0188 109.989 -8.20931 110.388 -5.22643C110.779 -2.29266 109.525 -1.32627 108.389 -0.815234C105.536 0.471748 102.398 1.44585 99.3639 2.38868L98.8848 2.53717C97.6569 2.91916 96.4012 3.22456 95.0735 3.54744C93.42 3.95029 91.7115 4.36606 90.0255 4.94755C87.515 5.81393 86.1514 6.42597 85.1902 7.56425C84.0815 8.87541 84.0088 10.3293 83.9241 12.0111C83.8829 12.8188 83.8326 13.8244 83.6711 15.0901C83.5155 16.303 83.0948 17.8154 82.6482 19.4151C81.3877 23.9372 79.832 29.5195 83.3773 33.0262C83.4063 33.4551 83.4052 33.9213 83.4036 34.4133C83.4031 35.3526 83.4017 36.4109 83.6129 37.4927ZM87.5795 20.798C88.0769 19.013 88.5465 17.3285 88.7494 15.7466C88.9354 14.2861 88.9929 13.1708 89.0382 12.2761C89.0645 11.7538 89.0966 11.1166 89.154 10.8399C89.388 10.6767 90.0323 10.3671 91.7 9.7923C93.1583 9.28827 94.6801 8.91888 96.2888 8.5262C97.6353 8.1983 99.0282 7.85976 100.409 7.42938L100.887 7.28135C103.908 6.34218 107.026 5.36969 110.019 4.06151C126.805 17.2877 138.962 20.3541 150.727 23.3191C152.963 23.8822 155.275 24.4649 157.588 25.1097C162.762 26.5519 175.607 28.5972 181.354 29.4801L179.552 37.3138C174.167 36.1603 160.549 33.2204 155.412 31.876C136.023 26.8061 117.937 26.2892 106.178 26.7486C96.5199 27.1256 89.5356 28.1802 86.5583 28.7021C85.8672 26.9413 86.7692 23.7067 87.5795 20.798ZM127.772 -51.2982L129.841 -51.3993C129.908 -51.3846 129.972 -51.3724 130.029 -51.3657C130.584 -51.286 130.836 -51.211 131.007 -50.263C131.241 -48.9698 131.009 -47.0329 130.783 -45.1599C130.586 -43.5228 130.384 -41.8296 130.457 -40.3145C130.55 -38.428 130.591 -36.4546 130.579 -34.4508C130.546 -28.5014 132.499 -22.7336 136.383 -17.3061C140.726 -11.2395 145.182 -6.3178 149.9 -1.10642C150.694 -0.228427 151.501 0.660922 152.321 1.5723C155.162 4.7303 159.439 6.93725 160.953 7.45808L161.087 7.50419L185.168 12.9049L182.506 24.4756C177.054 23.6413 163.932 21.5643 158.963 20.1786C156.59 19.5172 154.246 18.9265 151.979 18.3554C140.465 15.4529 129.56 12.7033 114.164 0.803964C115.348 -0.993536 115.814 -3.28712 115.466 -5.90181C114.982 -9.52717 113.671 -12.7717 112.402 -15.9091C112.213 -16.3772 112.023 -16.8471 111.837 -17.3162C110.681 -20.226 109.553 -23.3387 109.536 -26.5793C109.51 -31.9955 115.261 -40.6792 120.194 -46.4665C122.397 -49.0577 124.881 -50.6386 127.772 -51.2982ZM147.9 63.3308C147.386 63.3788 146.857 63.484 146.315 63.6293C144.873 64.0158 143.335 64.6945 141.734 65.4013C140.014 66.1619 138.233 66.9479 136.9 67.19C129.944 68.4527 124.603 69.3611 119.585 70.1356C117.381 70.4758 114.514 70.7488 111.9 69.8415C108.194 68.554 106.116 66.3023 105.395 62.7773C126.422 54.7841 142.701 57.7109 149.81 58.9892C150.138 59.0491 150.451 59.1042 150.745 59.1571C155.526 60.001 167.312 62.7504 173.365 64.1816L172.384 68.4443C166.598 66.6198 153.581 62.7934 147.9 63.3308ZM88.6372 36.5155C88.5219 35.9215 88.523 35.1958 88.5242 34.4299C88.525 34.1465 88.5249 33.8596 88.5213 33.5664C91.8106 33.0359 98.1714 32.1775 106.504 31.8579C117.885 31.4212 135.386 31.9303 154.117 36.8276C159.398 38.2081 172.932 41.1306 178.403 42.3011L176.934 48.6826C171.331 47.4377 158.147 44.502 153.046 43.3197C132.56 38.5676 117.219 39.5025 107.956 41.1238C101.42 42.2685 96.891 43.895 94.4154 44.953C94.325 44.8749 94.2322 44.8011 94.1356 44.7338C91.0956 42.601 89.2972 39.9127 88.6372 36.5155ZM96.1118 49.7973C101.176 47.5707 120.059 40.9232 151.888 48.3076C156.997 49.4932 170.154 52.4216 175.786 53.6733L174.517 59.1917C168.414 57.7463 156.595 54.9911 151.638 54.1159C151.348 54.0655 151.043 54.0103 150.72 53.9524C143.009 52.5653 125.119 49.3466 102.017 58.6008C98.4422 56.4489 96.5334 53.6074 96.1118 49.7973Z" fill="#E1E4EC"/>
<path d="M272.133 -7.33297L259.699 -11.2753L268.543 -39.1768C270.038 -43.8895 267.418 -48.9397 262.706 -50.4325L261.192 -50.9131C258.91 -51.6372 256.481 -51.4285 254.355 -50.3254C252.23 -49.2223 250.661 -47.3584 249.937 -45.0759L241.092 -17.1744L229.78 -20.7597C223.726 -22.6786 217.238 -19.314 215.319 -13.2597L210.062 3.32389C208.852 6.70889 206.666 8.92267 203.562 9.90606C201.087 10.6896 198.903 10.407 198.896 10.4071L196.53 10.0599L182.078 76.6276L184.465 77.2395C185.18 77.4227 202.157 81.6662 221.803 77.3173C222.892 77.0768 223.967 76.8143 225.029 76.5297C235.306 73.7761 244.318 68.9896 251.858 62.2713C262.205 53.0544 269.742 40.2012 274.26 24.0697L279.63 7.12881C280.56 4.19551 280.292 1.07684 278.875 -1.65516C277.461 -4.38806 275.066 -6.40319 272.133 -7.33297ZM254.815 -43.529C255.126 -44.5095 255.8 -45.3094 256.711 -45.782C257.622 -46.2545 258.665 -46.344 259.645 -46.0347L261.159 -45.5541C263.182 -44.9138 264.305 -42.7463 263.665 -40.7238L255 -13.3874L246.148 -16.1921L254.815 -43.529ZM217.812 -4.18862L272.369 13.1051L270.152 20.0982L215.691 2.50097L217.812 -4.18862ZM259.294 50.202L235.157 70.1669L210.033 77.4361L185.547 76.3063L197.127 11.7234L206.146 11.5781L212.48 4.15617L271.812 23.3261L259.294 50.202ZM274.755 5.58096L273.916 8.22675L219.359 -9.06701L220.198 -11.7128C221.264 -15.0774 224.869 -16.946 228.232 -15.8792L270.587 -2.45288C272.216 -1.93572 273.547 -0.815868 274.334 0.701872C275.12 2.21961 275.27 3.95184 274.755 5.58096Z" fill="#E1E4EC"/>
<path d="M271.813 23.3256L212.481 4.15566L206.147 11.5776L197.128 11.7229L185.548 76.3058L210.034 77.4356L235.159 70.1664L259.295 50.2015L271.813 23.3256ZM207.889 27.6342C208.887 27.48 209.936 27.2667 211.013 26.978C217.047 25.3613 224.008 21.371 228.477 12.0149L235.939 14.4265C227.144 38.8777 206.684 39.326 195.784 37.6055L197.937 27.686C200.481 28.0294 204.016 28.2315 207.889 27.6342ZM200.57 15.566C201.742 15.5206 203.242 15.3451 204.863 14.8598C207.76 13.992 211.497 11.9731 213.902 7.30501L223.554 10.4234C220.08 17.2873 214.614 21.3646 207.276 22.549C204.123 23.0575 201.189 22.9245 199.028 22.6612L200.57 15.566ZM194.7 42.6067C199.578 43.3843 206.92 43.8563 214.563 41.8084C215.122 41.6586 215.683 41.4954 216.244 41.3178C221.838 39.5484 226.729 36.5878 230.787 32.5205C235.061 28.2341 238.427 22.6838 240.813 15.9983L247.301 18.0953C244.309 30.0813 238.305 38.86 229.441 44.1915C220.683 49.4618 210.599 50.4316 203.684 50.3184C199.31 50.246 195.611 49.7444 193.241 49.3271L194.7 42.6067ZM192.153 54.3364C194.697 54.795 198.675 55.3441 203.441 55.4339C209.437 55.545 215.12 54.8847 220.316 53.4923C224.588 52.3476 228.532 50.7079 232.047 48.5985C242.05 42.5927 248.819 32.8653 252.182 19.6743L258.231 21.6275C253.968 37.5026 245.893 49.0655 234.212 56.0088C223.42 62.4234 211.404 63.7044 203.225 63.6485C197.684 63.6112 193.098 62.9725 190.384 62.4864L192.153 54.3364ZM220.875 72.2797C206.54 75.4903 193.399 73.7454 188.149 72.7823L189.297 67.4975C192.183 68.0252 197.054 68.7151 203.023 68.7676C208.366 68.8143 215.229 68.3311 222.433 66.4006C227.183 65.1279 232.082 63.2252 236.788 60.433C249.616 52.8222 258.465 40.3009 263.108 23.204L268.657 24.997C260.719 51.0496 244.651 66.9542 220.875 72.2797Z" fill="#E1E4EC"/>
<path opacity="0.84" d="M271.813 23.3256L212.481 4.15566L206.147 11.5776L197.128 11.7229L185.548 76.3058L210.034 77.4356L235.159 70.1664L259.295 50.2015L271.813 23.3256ZM207.889 27.6342C208.887 27.48 209.936 27.2667 211.013 26.978C217.047 25.3613 224.008 21.371 228.477 12.0149L235.939 14.4265C227.144 38.8777 206.684 39.326 195.784 37.6055L197.937 27.686C200.481 28.0294 204.016 28.2315 207.889 27.6342ZM200.57 15.566C201.742 15.5206 203.242 15.3451 204.863 14.8598C207.76 13.992 211.497 11.9731 213.902 7.30501L223.554 10.4234C220.08 17.2873 214.614 21.3646 207.276 22.549C204.123 23.0575 201.189 22.9245 199.028 22.6612L200.57 15.566ZM194.7 42.6067C199.578 43.3843 206.92 43.8563 214.563 41.8084C215.122 41.6586 215.683 41.4954 216.244 41.3178C221.838 39.5484 226.729 36.5878 230.787 32.5205C235.061 28.2341 238.427 22.6838 240.813 15.9983L247.301 18.0953C244.309 30.0813 238.305 38.86 229.441 44.1915C220.683 49.4618 210.599 50.4316 203.684 50.3184C199.31 50.246 195.611 49.7444 193.241 49.3271L194.7 42.6067ZM192.153 54.3364C194.697 54.795 198.675 55.3441 203.441 55.4339C209.437 55.545 215.12 54.8847 220.316 53.4923C224.588 52.3476 228.532 50.7079 232.047 48.5985C242.05 42.5927 248.819 32.8653 252.182 19.6743L258.231 21.6275C253.968 37.5026 245.893 49.0655 234.212 56.0088C223.42 62.4234 211.404 63.7044 203.225 63.6485C197.684 63.6112 193.098 62.9725 190.384 62.4864L192.153 54.3364ZM220.875 72.2797C206.54 75.4903 193.399 73.7454 188.149 72.7823L189.297 67.4975C192.183 68.0252 197.054 68.7151 203.023 68.7676C208.366 68.8143 215.229 68.3311 222.433 66.4006C227.183 65.1279 232.082 63.2252 236.788 60.433C249.616 52.8222 258.465 40.3009 263.108 23.204L268.657 24.997C260.719 51.0496 244.651 66.9542 220.875 72.2797Z" fill="#E1E4EC"/>
</g>
<g opacity="0.3">
<path d="M332.517 235.678C329.87 237.424 326.874 238.026 323.606 237.472C320.345 240.488 316.426 241.317 311.954 239.936C308.85 242.005 305.362 242.179 301.85 240.432C299.482 239.254 297.897 237.315 296.781 235.759C294.755 232.931 292.642 229.888 289.933 225.888C289.187 224.785 288.649 223.353 288.128 221.967C287.697 220.82 287.209 219.519 286.757 218.96C284.603 216.3 275.426 211.25 272.071 209.529L270.371 208.656L294.216 171.429L295.175 169.94L311.984 180.837C312.738 181.183 315.16 181.913 317.161 181.828C317.996 181.792 318.814 181.76 319.621 181.729C324.286 181.546 328.693 181.373 333.501 180.629C337.291 180.042 340.287 178.614 342.659 176.266C343.669 175.265 344.692 174.305 345.698 173.411C346.248 172.922 346.852 172.17 347.49 171.375C348.452 170.177 349.446 168.938 350.616 168.144C352.11 167.128 353.681 167.024 355.102 167.827L355.448 167.809L357.394 170.001L357.468 170.118C358.98 172.499 359.604 175.278 359.324 178.378C359.061 181.294 357.877 191.122 353.699 195.173C351.685 197.126 349.206 198.258 347.039 199.167C346.716 199.302 346.391 199.435 346.068 199.569C344.055 200.399 342.153 201.183 340.517 202.406C338.909 203.609 339.036 204.676 339.328 205.47C340.058 207.465 341.076 209.449 342.06 211.368L342.215 211.671C342.613 212.448 343.062 213.202 343.536 213.999C344.125 214.992 344.735 216.018 345.254 217.112C346.026 218.741 346.377 219.693 346.281 220.7C346.172 221.86 345.502 222.586 344.726 223.426C344.354 223.829 343.89 224.331 343.353 225.011C342.839 225.662 342.305 226.584 341.742 227.561C340.147 230.319 338.179 233.725 334.795 233.671C334.573 233.861 334.347 234.083 334.109 234.317C333.654 234.763 333.142 235.267 332.517 235.678ZM338.729 225.826C339.358 224.737 339.952 223.709 340.623 222.86C341.243 222.076 341.757 221.518 342.169 221.071C342.41 220.811 342.703 220.492 342.81 220.333C342.778 220.142 342.623 219.683 342.109 218.601C341.661 217.654 341.118 216.741 340.544 215.774C340.064 214.966 339.566 214.129 339.119 213.255L338.964 212.953C337.985 211.042 336.976 209.068 336.188 206.996C321.803 205.137 314.542 200.697 307.517 196.4C306.182 195.583 304.801 194.738 303.39 193.923C300.234 192.099 293.141 186.841 289.984 184.473L287.041 189.068C290.158 191.131 298.051 196.339 301.142 198.192C312.809 205.187 321.649 213.712 327.011 219.633C331.415 224.495 334.22 228.383 335.381 230.075C336.563 229.574 337.703 227.6 338.729 225.826ZM354.604 172.095L353.671 171.044C353.631 171.018 353.595 170.993 353.565 170.969C353.263 170.738 353.107 170.651 352.565 171.018C351.827 171.519 350.998 172.551 350.197 173.55C349.497 174.423 348.772 175.325 348.002 176.009C347.043 176.86 346.067 177.778 345.1 178.735C342.231 181.577 338.507 183.369 334.03 184.063C329.026 184.838 324.523 185.014 319.755 185.201C318.952 185.233 318.137 185.264 317.306 185.299C314.425 185.421 311.324 184.395 310.352 183.908L310.266 183.865L296.211 174.752L291.864 181.538C294.857 183.786 302.096 189.163 305.128 190.914C306.576 191.751 307.976 192.607 309.329 193.435C316.205 197.641 322.718 201.623 335.8 203.439C336.109 202.01 337 200.695 338.433 199.622C340.421 198.135 342.617 197.23 344.741 196.355C345.058 196.225 345.376 196.094 345.692 195.961C347.652 195.14 349.698 194.209 351.277 192.678C353.916 190.118 355.396 183.205 355.86 178.065C356.07 175.766 355.657 173.811 354.604 172.095ZM289.456 216.773C289.676 217.045 289.877 217.351 290.064 217.683C290.561 218.566 290.962 219.634 291.38 220.747C291.828 221.942 292.293 223.179 292.808 223.94C295.5 227.913 297.595 230.935 299.603 233.736C300.485 234.966 301.714 236.486 303.396 237.323C305.78 238.509 307.858 238.447 309.91 237.123C303.801 223.13 294.65 216.625 290.654 213.785C290.469 213.654 290.294 213.529 290.129 213.411C287.449 211.493 280.518 207.084 276.949 204.828L275.348 207.328C278.981 209.267 287.018 213.763 289.456 216.773ZM330.604 232.777C330.947 232.551 331.299 232.206 331.67 231.842C331.807 231.707 331.946 231.571 332.09 231.433C330.785 229.586 328.18 226.094 324.378 221.901C319.185 216.174 310.627 207.929 299.356 201.172C296.178 199.266 288.334 194.091 285.168 191.993L282.771 195.736C286.036 197.862 293.721 202.862 296.716 204.774C308.75 212.452 315.582 220.336 319.195 225.597C321.744 229.311 323.106 232.279 323.769 233.982C323.849 233.989 323.929 233.999 324.008 234.014C326.486 234.475 328.644 234.071 330.604 232.777ZM320.614 235.46C319.289 231.947 313.545 219.633 294.847 207.704C291.846 205.79 284.178 200.8 280.896 198.663L278.822 201.9C282.422 204.173 289.371 208.596 292.149 210.584C292.311 210.701 292.483 210.822 292.664 210.951C296.999 214.032 307.057 221.18 313.54 236.777C316.281 237.489 318.566 237.065 320.614 235.46Z" fill="#E1E4EC"/>
<path d="M264.724 122.967L272.541 127.125L281.871 109.585C283.447 106.622 287.14 105.494 290.102 107.07L291.054 107.576C292.489 108.339 293.541 109.616 294.016 111.171C294.49 112.725 294.332 114.371 293.569 115.807L284.238 133.347L291.349 137.129C295.155 139.154 296.604 143.898 294.58 147.704L289.034 158.129C287.968 160.324 287.932 162.435 288.929 164.408C289.725 165.98 290.899 166.905 290.902 166.908L292.194 167.891L266.776 206.513L265.345 205.646C264.917 205.387 254.797 199.169 247.575 187.576C247.175 186.934 246.792 186.288 246.425 185.637C242.88 179.346 240.921 172.703 240.598 165.855C240.154 156.461 242.808 146.701 248.485 136.849L254.15 126.2C255.131 124.356 256.771 123.004 258.769 122.394C260.765 121.782 262.88 121.986 264.724 122.967ZM290.502 114.176C290.829 113.559 290.897 112.852 290.694 112.186C290.49 111.52 290.038 110.971 289.423 110.643L288.471 110.137C287.2 109.46 285.615 109.945 284.938 111.216L275.797 128.401L281.361 131.361L290.502 114.176ZM288.997 150.803L254.7 132.559L252.362 136.955L286.76 155.009L288.997 150.803ZM242.92 156.518L244.701 177.704L253.107 193.34L265.284 204.678L291.104 168.391L286.891 163.949L287.482 157.352L250.009 137.683L242.92 156.518ZM257.216 127.829L256.332 129.492L290.628 147.736L291.513 146.073C292.638 143.958 291.832 141.322 289.718 140.198L263.092 126.035C262.067 125.49 260.892 125.377 259.782 125.716C258.673 126.055 257.762 126.805 257.216 127.829Z" fill="#E1E4EC"/>
<path d="M285.825 112.971C286.226 112.216 287.164 111.93 287.918 112.331C288.673 112.733 288.959 113.67 288.558 114.425C288.156 115.179 287.219 115.466 286.464 115.064C285.71 114.663 285.423 113.726 285.825 112.971Z" fill="#E1E4EC"/>
<path d="M250.008 137.683L287.482 157.351L286.891 163.948L291.104 168.391L265.284 204.677L253.107 193.34L244.701 177.703L242.92 156.517L250.008 137.683ZM278.277 170.729C277.878 170.171 277.483 169.561 277.112 168.902C275.03 165.208 273.659 159.937 276.074 153.327L271.361 150.853C263.68 166.731 273.179 176.865 279.19 181.334L282.978 175.579C281.603 174.508 279.827 172.89 278.277 170.729ZM287.606 168.547C287.071 167.957 286.443 167.146 285.909 166.129C284.954 164.312 284.159 161.541 285.28 158.158L279.184 154.958C277.505 159.903 278.124 164.49 281.034 168.611C282.285 170.381 283.743 171.741 284.897 172.664L287.606 168.547ZM277.28 184.235C274.586 182.239 270.87 178.902 268.234 174.223C268.041 173.881 267.854 173.532 267.673 173.175C265.875 169.622 264.988 165.844 265.033 161.945C265.082 157.836 266.175 153.568 268.284 149.236L264.186 147.086C259.794 154.229 258.388 161.31 260.012 168.14C261.616 174.89 265.935 180.241 269.274 183.541C271.386 185.628 273.386 187.183 274.714 188.135L277.28 184.235ZM272.801 191.041C271.371 190.025 269.215 188.357 266.908 186.088C264.007 183.233 261.628 180.164 259.836 176.983C258.362 174.367 257.284 171.676 256.638 168.969C254.8 161.266 256.302 153.364 261.102 145.468L257.282 143.463C251.608 153.069 249.836 162.477 252.016 171.439C254.03 179.719 259.116 186.154 263.027 190.094C265.677 192.764 268.164 194.684 269.689 195.769L272.801 191.041ZM250.459 185.634C255.71 194.11 262.797 199.654 265.757 201.743L267.775 198.676C266.149 197.528 263.501 195.493 260.64 192.623C258.081 190.054 255.055 186.497 252.57 182.086C250.932 179.178 249.528 175.899 248.647 172.291C246.245 162.455 248.115 152.217 254.201 141.846L250.696 140.007C241.832 156.229 241.75 171.575 250.459 185.634Z" fill="#E1E4EC"/>
<path opacity="0.84" d="M250.008 137.683L287.482 157.351L286.891 163.948L291.104 168.391L265.284 204.677L253.107 193.34L244.701 177.703L242.92 156.517L250.008 137.683ZM278.277 170.729C277.878 170.171 277.483 169.561 277.112 168.902C275.03 165.208 273.659 159.937 276.074 153.327L271.361 150.853C263.68 166.731 273.179 176.865 279.19 181.334L282.978 175.579C281.603 174.508 279.827 172.89 278.277 170.729ZM287.606 168.547C287.071 167.957 286.443 167.146 285.909 166.129C284.954 164.312 284.159 161.541 285.28 158.158L279.184 154.958C277.505 159.903 278.124 164.49 281.034 168.611C282.285 170.381 283.743 171.741 284.897 172.664L287.606 168.547ZM277.28 184.235C274.586 182.239 270.87 178.902 268.234 174.223C268.041 173.881 267.854 173.532 267.673 173.175C265.875 169.622 264.988 165.844 265.033 161.945C265.082 157.836 266.175 153.568 268.284 149.236L264.186 147.086C259.794 154.229 258.388 161.31 260.012 168.14C261.616 174.89 265.935 180.241 269.274 183.541C271.386 185.628 273.386 187.183 274.714 188.135L277.28 184.235ZM272.801 191.041C271.371 190.025 269.215 188.357 266.908 186.088C264.007 183.233 261.628 180.164 259.836 176.983C258.362 174.367 257.284 171.676 256.638 168.969C254.8 161.266 256.302 153.364 261.102 145.468L257.282 143.463C251.608 153.069 249.836 162.477 252.016 171.439C254.03 179.719 259.116 186.154 263.027 190.094C265.677 192.764 268.164 194.684 269.689 195.769L272.801 191.041ZM250.459 185.634C255.71 194.11 262.797 199.654 265.757 201.743L267.775 198.676C266.149 197.528 263.501 195.493 260.64 192.623C258.081 190.054 255.055 186.497 252.57 182.086C250.932 179.178 249.528 175.899 248.647 172.291C246.245 162.455 248.115 152.217 254.201 141.846L250.696 140.007C241.832 156.229 241.75 171.575 250.459 185.634Z" fill="#E1E4EC"/>
</g>
<g opacity="0.4">
<path d="M1652.36 159.265C1652.79 162.582 1654.38 165.39 1657.08 167.614C1656.92 172.3 1658.97 175.999 1663.16 178.615C1663.65 182.52 1665.92 185.424 1669.74 187.02C1672.32 188.095 1674.96 188.021 1676.97 187.837C1680.63 187.501 1684.51 187.085 1689.58 186.485C1690.97 186.319 1692.49 185.758 1693.95 185.217C1695.16 184.769 1696.54 184.26 1697.3 184.235C1700.91 184.116 1711.28 187.953 1714.97 189.441L1716.84 190.195L1730.08 145.458L1730.6 143.664L1710.3 137.777C1709.5 137.414 1707.25 135.985 1705.93 134.33C1705.38 133.639 1704.84 132.964 1704.31 132.298C1701.24 128.45 1698.33 124.813 1695.6 120.463C1693.46 117.033 1692.53 113.656 1692.76 110.142C1692.86 108.644 1692.92 107.165 1692.94 105.745C1692.95 104.968 1693.13 103.967 1693.33 102.909C1693.62 101.314 1693.92 99.6648 1693.75 98.1831C1693.53 96.2893 1692.52 94.9639 1690.9 94.3849L1690.68 94.0964L1687.58 94.0571L1687.44 94.0788C1684.5 94.5164 1681.85 95.9377 1679.57 98.3019C1677.42 100.525 1670.4 108.258 1670.05 114.389C1669.88 117.345 1670.69 120.105 1671.46 122.462C1671.58 122.813 1671.69 123.164 1671.81 123.515C1672.54 125.694 1673.23 127.753 1673.38 129.903C1673.53 132.017 1672.59 132.653 1671.76 132.968C1669.66 133.763 1667.38 134.321 1665.16 134.861L1664.81 134.946C1663.92 135.165 1663.01 135.328 1662.05 135.501C1660.85 135.716 1659.61 135.938 1658.37 136.279C1656.54 136.788 1655.54 137.166 1654.8 137.937C1653.95 138.826 1653.84 139.862 1653.7 141.061C1653.64 141.636 1653.56 142.353 1653.38 143.251C1653.22 144.111 1652.85 145.174 1652.46 146.298C1651.36 149.475 1650 153.398 1652.38 156.061C1652.39 156.369 1652.36 156.702 1652.34 157.054C1652.3 157.726 1652.25 158.482 1652.36 159.265ZM1655.93 147.504C1656.36 146.25 1656.77 145.066 1656.99 143.944C1657.18 142.908 1657.27 142.113 1657.35 141.475C1657.39 141.103 1657.44 140.649 1657.49 140.454C1657.67 140.347 1658.14 140.154 1659.36 139.817C1660.42 139.521 1661.53 139.324 1662.69 139.114C1663.67 138.939 1664.68 138.758 1665.69 138.511L1666.04 138.427C1668.24 137.888 1670.51 137.33 1672.71 136.527C1684.13 146.723 1692.68 149.451 1700.96 152.089C1702.54 152.59 1704.17 153.109 1705.79 153.671C1709.43 154.931 1718.52 156.959 1722.59 157.843L1720.96 163.365C1717.16 162.303 1707.55 159.601 1703.94 158.413C1690.3 153.934 1677.39 152.768 1668.96 152.578C1662.04 152.422 1657 152.868 1654.85 153.11C1654.43 151.821 1655.22 149.548 1655.93 147.504ZM1687.84 97.7296L1689.32 97.7485C1689.37 97.762 1689.42 97.7735 1689.46 97.7808C1689.85 97.8622 1690.03 97.927 1690.11 98.6123C1690.22 99.5472 1689.97 100.922 1689.72 102.251C1689.51 103.413 1689.29 104.614 1689.28 105.701C1689.26 107.054 1689.2 108.466 1689.1 109.898C1688.82 114.15 1689.96 118.36 1692.5 122.412C1695.34 126.941 1698.31 130.656 1701.45 134.589C1701.98 135.252 1702.52 135.924 1703.06 136.611C1704.95 138.994 1707.91 140.761 1708.97 141.2L1709.07 141.239L1726.05 146.161L1723.63 154.316C1719.77 153.479 1710.48 151.416 1706.99 150.207C1705.32 149.629 1703.67 149.104 1702.08 148.595C1693.97 146.013 1686.3 143.566 1675.81 134.381C1676.74 133.148 1677.17 131.528 1677.04 129.644C1676.86 127.03 1676.06 124.653 1675.29 122.354C1675.18 122.011 1675.06 121.667 1674.95 121.323C1674.25 119.192 1673.58 116.916 1673.71 114.599C1673.93 110.725 1678.43 104.77 1682.21 100.85C1683.9 99.0946 1685.74 98.0738 1687.84 97.7296ZM1697.18 180.571C1696.81 180.583 1696.43 180.634 1696.03 180.714C1694.99 180.927 1693.86 181.345 1692.68 181.779C1691.42 182.247 1690.11 182.731 1689.14 182.845C1684.12 183.442 1680.26 183.856 1676.64 184.188C1675.05 184.334 1672.98 184.403 1671.15 183.639C1668.56 182.556 1667.18 180.854 1666.81 178.302C1682.2 173.514 1693.71 176.324 1698.74 177.551C1698.97 177.608 1699.19 177.661 1699.4 177.712C1702.78 178.526 1711.08 181.011 1715.35 182.301L1714.46 185.306C1710.4 183.746 1701.26 180.437 1697.18 180.571ZM1655.99 158.788C1655.93 158.358 1655.97 157.839 1656 157.292C1656.02 157.089 1656.03 156.884 1656.04 156.674C1658.41 156.44 1663 156.106 1668.97 156.245C1677.13 156.434 1689.62 157.57 1702.79 161.896C1706.51 163.116 1716.05 165.802 1719.91 166.88L1718.58 171.377C1714.63 170.24 1705.34 167.561 1701.74 166.491C1687.3 162.19 1676.29 162.183 1669.6 162.934C1664.88 163.464 1661.57 164.427 1659.75 165.075C1659.69 165.015 1659.63 164.958 1659.56 164.906C1657.48 163.247 1656.31 161.246 1655.99 158.788ZM1660.75 168.613C1664.47 167.244 1678.26 163.324 1700.69 170.006C1704.29 171.078 1713.57 173.752 1717.54 174.895L1716.39 178.784C1712.09 177.482 1703.76 174.992 1700.26 174.147C1700.05 174.099 1699.84 174.046 1699.61 173.99C1694.16 172.658 1681.51 169.569 1664.58 175.167C1662.12 173.471 1660.88 171.356 1660.75 168.613Z" fill="#E1E4EC"/>
<path d="M1789.11 135.524L1780.4 132.157L1787.95 112.599C1789.23 109.295 1787.58 105.569 1784.27 104.294L1783.21 103.884C1781.61 103.266 1779.87 103.308 1778.3 104.003C1776.73 104.698 1775.53 105.961 1774.91 107.561L1767.36 127.12L1759.43 124.058C1755.18 122.419 1750.4 124.539 1748.76 128.783L1744.27 140.408C1743.25 142.775 1741.59 144.261 1739.33 144.827C1737.53 145.279 1735.98 144.98 1735.97 144.98L1734.3 144.627L1721.03 191.583L1722.71 192.126C1723.21 192.289 1735.16 196.071 1749.4 193.827C1750.19 193.703 1750.97 193.563 1751.74 193.406C1759.21 191.89 1765.86 188.865 1771.55 184.394C1779.36 178.261 1785.31 169.403 1789.25 158.069L1793.84 146.194C1794.63 144.138 1794.58 141.896 1793.68 139.88C1792.79 137.864 1791.17 136.318 1789.11 135.524ZM1778.33 108.882C1778.59 108.195 1779.11 107.653 1779.78 107.355C1780.45 107.057 1781.2 107.039 1781.89 107.304L1782.95 107.714C1784.37 108.261 1785.08 109.86 1784.53 111.278L1777.13 130.44L1770.93 128.045L1778.33 108.882ZM1750.14 135.378L1788.38 150.147L1786.49 155.049L1748.33 140.068L1750.14 135.378ZM1777.4 176.093L1759.26 189.303L1740.98 193.393L1723.52 191.507L1734.65 145.843L1741.1 146.137L1745.96 141.109L1787.53 157.43L1777.4 176.093ZM1790.42 144.872L1789.7 146.727L1751.46 131.959L1752.18 130.104C1753.09 127.745 1755.75 126.568 1758.1 127.479L1787.79 138.945C1788.94 139.386 1789.84 140.246 1790.33 141.365C1790.83 142.485 1790.86 143.73 1790.42 144.872Z" fill="#E1E4EC"/>
<path d="M1782.52 111.783C1782.84 110.941 1782.42 109.995 1781.58 109.67C1780.74 109.345 1779.8 109.764 1779.47 110.606C1779.15 111.447 1779.57 112.393 1780.41 112.718C1781.25 113.043 1782.19 112.624 1782.52 111.783Z" fill="#E1E4EC"/>
<path d="M1787.53 157.429L1745.96 141.109L1741.1 146.136L1734.65 145.843L1723.52 191.506L1740.98 193.393L1759.26 189.303L1777.4 176.093L1787.53 157.429ZM1741.64 157.693C1742.36 157.627 1743.12 157.52 1743.9 157.361C1748.29 156.471 1753.44 153.925 1757.05 147.433L1762.28 149.486C1754.91 166.58 1740.27 165.999 1732.55 164.288L1734.52 157.291C1736.33 157.649 1738.85 157.949 1741.64 157.693ZM1736.94 148.742C1737.78 148.761 1738.86 148.702 1740.04 148.426C1742.15 147.934 1744.91 146.655 1746.84 143.423L1753.6 146.078C1750.81 150.832 1746.73 153.507 1741.43 154.03C1739.15 154.255 1737.06 154.03 1735.53 153.747L1736.94 148.742ZM1731.55 167.816C1735.01 168.587 1740.23 169.248 1745.79 168.121C1746.2 168.038 1746.6 167.946 1747.01 167.844C1751.09 166.826 1754.72 164.924 1757.8 162.195C1761.04 159.319 1763.69 155.499 1765.69 150.824L1770.24 152.61C1767.57 161.047 1762.89 167.059 1756.32 170.48C1749.83 173.862 1742.57 174.111 1737.64 173.726C1734.51 173.481 1731.89 172.959 1730.21 172.557L1731.55 167.816ZM1729.21 176.09C1731.01 176.53 1733.83 177.098 1737.24 177.372C1741.52 177.716 1745.61 177.494 1749.39 176.728C1752.49 176.098 1755.38 175.099 1757.99 173.746C1765.41 169.893 1770.67 163.236 1773.66 153.954L1777.9 155.617C1774.15 166.779 1767.87 174.69 1759.21 179.139C1751.21 183.25 1742.57 183.636 1736.72 183.236C1732.76 182.965 1729.51 182.306 1727.59 181.839L1729.21 176.09ZM1748.96 190.184C1738.57 191.848 1729.25 190.022 1725.54 189.102L1726.59 185.374C1728.63 185.878 1732.09 186.586 1736.35 186.887C1740.17 187.156 1745.1 187.113 1750.33 186.05C1753.78 185.349 1757.37 184.205 1760.86 182.416C1770.37 177.54 1777.24 168.978 1781.32 156.959L1785.2 158.485C1778.38 176.762 1766.19 187.425 1748.96 190.184Z" fill="#E1E4EC"/>
<path opacity="0.84" d="M1787.53 157.429L1745.96 141.109L1741.1 146.136L1734.65 145.843L1723.52 191.506L1740.98 193.393L1759.26 189.303L1777.4 176.093L1787.53 157.429ZM1741.64 157.693C1742.36 157.627 1743.12 157.52 1743.9 157.361C1748.29 156.471 1753.44 153.925 1757.05 147.433L1762.28 149.486C1754.91 166.58 1740.27 165.999 1732.55 164.288L1734.52 157.291C1736.33 157.649 1738.85 157.949 1741.64 157.693ZM1736.94 148.742C1737.78 148.761 1738.86 148.702 1740.04 148.426C1742.15 147.934 1744.91 146.655 1746.84 143.423L1753.6 146.078C1750.81 150.832 1746.73 153.507 1741.43 154.03C1739.15 154.255 1737.06 154.03 1735.53 153.747L1736.94 148.742ZM1731.55 167.816C1735.01 168.587 1740.23 169.248 1745.79 168.121C1746.2 168.038 1746.6 167.946 1747.01 167.844C1751.09 166.826 1754.72 164.924 1757.8 162.195C1761.04 159.319 1763.69 155.499 1765.69 150.824L1770.24 152.61C1767.57 161.047 1762.89 167.059 1756.32 170.48C1749.83 173.862 1742.57 174.111 1737.64 173.726C1734.51 173.481 1731.89 172.959 1730.21 172.557L1731.55 167.816ZM1729.21 176.09C1731.01 176.53 1733.83 177.098 1737.24 177.372C1741.52 177.716 1745.61 177.494 1749.39 176.728C1752.49 176.098 1755.38 175.099 1757.99 173.746C1765.41 169.893 1770.67 163.236 1773.66 153.954L1777.9 155.617C1774.15 166.779 1767.87 174.69 1759.21 179.139C1751.21 183.25 1742.57 183.636 1736.72 183.236C1732.76 182.965 1729.51 182.306 1727.59 181.839L1729.21 176.09ZM1748.96 190.184C1738.57 191.848 1729.25 190.022 1725.54 189.102L1726.59 185.374C1728.63 185.878 1732.09 186.586 1736.35 186.887C1740.17 187.156 1745.1 187.113 1750.33 186.05C1753.78 185.349 1757.37 184.205 1760.86 182.416C1770.37 177.54 1777.24 168.978 1781.32 156.959L1785.2 158.485C1778.38 176.762 1766.19 187.425 1748.96 190.184Z" fill="#E1E4EC"/>
</g>
<g opacity="0.4">
<path d="M1766.91 -71.009C1769.29 -64.1067 1768.91 -57.0785 1765.81 -50.1087C1770.67 -41.1068 1770.27 -31.8934 1764.63 -22.7083C1767.47 -14.6012 1765.86 -6.72175 1759.95 0.110539C1755.97 4.71632 1750.73 7.14027 1746.62 8.7384C1739.16 11.6389 1731.16 14.6073 1720.69 18.3587C1717.8 19.3922 1714.3 19.771 1710.91 20.1392C1708.1 20.4426 1704.92 20.7865 1703.42 21.4757C1696.25 24.7552 1679.73 42.3324 1673.97 48.8276L1671.05 52.1207L1601.68 -22.3807L1598.91 -25.3733L1632.84 -56.6208C1634.04 -58.1058 1637.06 -63.0888 1638.01 -67.6001C1638.41 -69.4831 1638.81 -71.3259 1639.2 -73.1445C1641.46 -83.6527 1643.6 -93.5812 1644.7 -104.729C1645.56 -113.519 1644.09 -121.019 1640.21 -127.654C1638.56 -130.48 1637 -133.311 1635.58 -136.067C1634.81 -137.575 1633.48 -139.352 1632.07 -141.231C1629.95 -144.061 1627.75 -146.988 1626.65 -150.052C1625.24 -153.967 1625.91 -157.53 1628.51 -160.238L1628.67 -161.02L1634.68 -164.105L1634.98 -164.204C1641.16 -166.213 1647.71 -166.013 1654.46 -163.613C1660.82 -161.357 1682.06 -153.086 1688.7 -141.449C1691.9 -135.839 1693.01 -129.661 1693.79 -124.308C1693.91 -123.511 1694.02 -122.71 1694.14 -121.912C1694.83 -116.947 1695.49 -112.257 1697.28 -107.908C1699.05 -103.631 1701.5 -103.303 1703.44 -103.499C1708.3 -103.987 1713.31 -105.12 1718.16 -106.215L1718.92 -106.389C1720.88 -106.831 1722.82 -107.399 1724.87 -108C1727.42 -108.747 1730.06 -109.519 1732.8 -110.05C1736.87 -110.839 1739.2 -111.076 1741.39 -110.286C1743.91 -109.378 1745.15 -107.467 1746.57 -105.257C1747.26 -104.196 1748.12 -102.874 1749.32 -101.287C1750.48 -99.7667 1752.23 -98.0484 1754.09 -96.2321C1759.33 -91.0963 1765.8 -84.7559 1763.74 -77.2389C1764.03 -76.6357 1764.4 -76.0055 1764.79 -75.3408C1765.52 -74.0698 1766.35 -72.6384 1766.91 -71.009ZM1748.49 -90.5065C1746.43 -92.534 1744.47 -94.447 1742.96 -96.4297C1741.57 -98.2611 1740.62 -99.7259 1739.86 -100.902C1739.42 -101.588 1738.87 -102.425 1738.58 -102.755C1738.14 -102.793 1737.02 -102.709 1734.32 -102.183C1731.95 -101.726 1729.6 -101.037 1727.12 -100.311C1725.04 -99.7027 1722.89 -99.0723 1720.68 -98.5755L1719.92 -98.4028C1715.1 -97.3132 1710.12 -96.193 1705.04 -95.6245C1692.66 -64.6042 1678.6 -50.9528 1664.99 -37.7452C1662.4 -35.236 1659.73 -32.6402 1657.1 -29.9603C1651.23 -23.965 1635.44 -11.1583 1628.35 -5.47183L1636.91 3.72334C1643.3 -2.04638 1659.43 -16.6682 1665.34 -22.502C1687.62 -44.5169 1711.69 -59.3499 1727.97 -67.9177C1741.34 -74.9551 1751.62 -78.9855 1756.05 -80.6059C1755.61 -83.5293 1751.86 -87.2027 1748.49 -90.5065ZM1637.75 -156.684L1634.87 -155.204C1634.79 -155.131 1634.71 -155.065 1634.64 -155.011C1633.95 -154.47 1633.67 -154.171 1634.18 -152.754C1634.87 -150.821 1636.7 -148.381 1638.47 -146.022C1640.02 -143.96 1641.61 -141.826 1642.7 -139.718C1644.05 -137.092 1645.53 -134.389 1647.11 -131.686C1651.81 -123.659 1653.67 -114.326 1652.66 -103.944C1651.52 -92.3387 1649.34 -82.1945 1647.02 -71.4534C1646.63 -69.6442 1646.24 -67.8101 1645.84 -65.9358C1644.46 -59.4407 1640.4 -53.1112 1638.75 -51.2234L1638.61 -51.0556L1610.23 -24.9268L1622.88 -11.3459C1629.61 -16.7352 1645.74 -29.8013 1651.39 -35.5598C1654.08 -38.3099 1656.79 -40.941 1659.42 -43.4857C1672.73 -56.4127 1685.35 -68.6567 1696.89 -96.7948C1693.88 -98.3019 1691.45 -101.043 1689.88 -104.854C1687.7 -110.139 1686.94 -115.556 1686.21 -120.793C1686.1 -121.575 1685.99 -122.359 1685.87 -123.14C1685.16 -127.982 1684.26 -133.077 1681.75 -137.476C1677.55 -144.828 1662.98 -152.087 1651.78 -156.066C1646.77 -157.851 1642.18 -158.05 1637.75 -156.684ZM1700.09 14.2033C1700.82 13.8671 1701.62 13.596 1702.46 13.369C1704.72 12.765 1707.33 12.4822 1710.05 12.1875C1712.97 11.8727 1716 11.5448 1717.99 10.8307C1728.39 7.10394 1736.33 4.16 1743.73 1.28673C1746.98 0.0249376 1751.07 -1.84592 1753.9 -5.11745C1757.91 -9.75579 1758.96 -14.4274 1757.19 -19.7626C1722.48 -14.1495 1702.73 2.5338 1694.11 9.81926C1693.71 10.1572 1693.33 10.4761 1692.97 10.7771C1687.16 15.6559 1673.36 28.5878 1666.28 35.2557L1670.94 40.2587C1677.35 33.2675 1691.98 17.9156 1700.09 14.2033ZM1759.34 -68.4053C1759.04 -69.2995 1758.47 -70.2809 1757.87 -71.3166C1757.65 -71.6997 1757.42 -72.088 1757.2 -72.4878C1752.33 -70.6353 1743.05 -66.8264 1731.52 -60.7474C1715.77 -52.4441 1692.48 -38.0786 1670.96 -16.8119C1664.89 -10.816 1648.85 3.7158 1642.36 9.57627L1649.34 17.0657C1655.95 11.0018 1671.5 -3.27496 1677.48 -8.86116C1701.5 -31.3033 1722.99 -42.0265 1736.8 -47.0705C1746.54 -50.629 1753.94 -51.9666 1758.12 -52.4692C1758.18 -52.6455 1758.25 -52.8179 1758.32 -52.9845C1760.77 -58.247 1761.11 -63.2913 1759.34 -68.4053ZM1759.61 -44.5863C1751.01 -43.6428 1720.26 -37.8841 1682.95 -3.01446C1676.96 2.5826 1661.44 16.828 1654.79 22.924L1660.82 29.4015C1667.95 22.6758 1681.8 9.7105 1687.82 4.65145C1688.18 4.35712 1688.55 4.04376 1688.94 3.71331C1698.29 -4.19068 1719.99 -22.5282 1758.49 -28.0552C1761.65 -33.7619 1762.01 -39.0997 1759.61 -44.5863Z" fill="#E1E4EC"/>
<path d="M1476.71 15.641L1490.46 0.587585L1456.68 -30.2671C1450.97 -35.4781 1450.57 -44.3608 1455.78 -50.064L1457.46 -51.8974C1459.98 -54.6613 1463.43 -56.2771 1467.17 -56.4451C1470.91 -56.613 1474.49 -55.3162 1477.25 -52.7925L1511.03 -21.9379L1523.54 -35.6308C1530.23 -42.9595 1541.65 -43.4753 1548.97 -36.78L1569.05 -18.4413C1573.33 -14.8057 1578.02 -13.5175 1582.99 -14.6122C1586.95 -15.4852 1589.69 -17.5747 1589.7 -17.5802L1592.63 -19.8993L1664.21 58.9104L1661.46 61.6045C1660.64 62.4106 1640.97 81.4218 1610.98 90.8888C1609.32 91.4139 1607.66 91.8988 1606 92.3436C1589.94 96.6474 1574 97.2113 1558.54 94.0105C1537.34 89.6204 1517.09 78.1132 1498.37 59.8086L1477.86 41.0744C1474.31 37.8305 1472.23 33.4003 1472.02 28.5948C1471.79 23.7908 1473.46 19.1918 1476.71 15.641ZM1471.86 -46.8863C1470.67 -47.9704 1469.14 -48.5267 1467.53 -48.4542C1465.93 -48.3818 1464.45 -47.6877 1463.36 -46.5032L1461.69 -44.6697C1459.45 -42.2224 1459.63 -38.4106 1462.07 -36.1733L1495.16 -5.9435L1504.95 -16.6572L1471.86 -46.8863ZM1552.69 -22.5537L1492.36 43.4897L1500.82 51.2223L1560.79 -15.1567L1552.69 -22.5537ZM1539.05 83.4844L1587.32 91.6462L1627.01 81.8515L1659.27 61.187L1593.12 -17.1808L1580.8 -10.3297L1566.43 -15.4256L1501.1 56.8887L1539.05 83.4844ZM1483.25 35.1695L1486.45 38.0953L1546.78 -27.948L1543.58 -30.8738C1539.51 -34.5946 1533.17 -34.3066 1529.45 -30.2346L1482.61 21.038C1480.81 23.0115 1479.88 25.5671 1480.01 28.2363C1480.13 30.9054 1481.28 33.3673 1483.25 35.1695Z" fill="#E1E4EC"/>
<path d="M1501.1 56.8889L1566.43 -15.4254L1580.8 -10.3294L1593.12 -17.1806L1659.27 61.1872L1627 81.8516L1587.32 91.6464L1539.04 83.4846L1501.1 56.8889ZM1590.99 12.7658C1589.52 13.3373 1587.93 13.8678 1586.25 14.3191C1576.82 16.8458 1564.28 16.8848 1550.92 7.71348L1542.7 16.8088C1573.71 43.032 1601.76 27.6497 1615.17 16.8029L1604.5 5.05892C1601.33 7.51188 1596.7 10.548 1590.99 12.7658ZM1591.47 -9.28899C1589.84 -8.43466 1587.68 -7.49952 1585.1 -6.89015C1580.5 -5.80036 1573.87 -5.61314 1566.96 -10.0518L1556.34 1.71177C1566.4 8.28737 1576.99 9.53526 1587.85 5.40332C1592.51 3.62791 1596.38 1.1553 1599.1 -0.889832L1591.47 -9.28899ZM1620.54 22.7247C1614.55 27.5898 1604.98 33.9664 1593.03 37.1671C1592.16 37.4013 1591.27 37.619 1590.37 37.8168C1581.42 39.7935 1572.49 39.6086 1563.81 37.2739C1554.68 34.8126 1545.79 29.9303 1537.33 22.7454L1530.19 30.6537C1543.61 44.5395 1558.59 51.7302 1574.76 52.0197C1590.73 52.3091 1605.14 45.7413 1614.41 40.184C1620.27 36.6681 1624.89 33.0982 1627.77 30.681L1620.54 22.7247ZM1633.16 36.6113C1630.07 39.22 1625.12 43.0726 1618.74 46.9184C1610.71 51.7542 1602.5 55.3015 1594.38 57.4777C1587.7 59.2669 1581.08 60.1297 1574.67 60.0214C1556.44 59.7091 1539.68 51.8323 1524.82 36.6057L1518.15 43.9766C1536.33 62.1331 1556.3 71.4737 1577.53 71.7434C1597.16 71.9922 1614.42 64.3358 1625.45 57.8684C1632.92 53.4877 1638.63 49.0396 1641.92 46.2608L1633.16 36.6113ZM1608.3 83.3446C1630.21 76.488 1646.64 63.8567 1652.99 58.4503L1647.31 52.1937C1643.81 55.1633 1637.76 59.9043 1629.72 64.6398C1622.53 68.8781 1612.86 73.5875 1601.6 76.6047C1594.17 78.5938 1586.06 79.8465 1577.51 79.7448C1554.19 79.4685 1532.43 69.4355 1512.79 49.9219L1506.68 56.6853C1537.78 85.7455 1571.96 94.7165 1608.3 83.3446Z" fill="#E1E4EC"/>
<path opacity="0.84" d="M1501.1 56.8889L1566.43 -15.4254L1580.8 -10.3294L1593.12 -17.1806L1659.27 61.1872L1627 81.8516L1587.32 91.6464L1539.04 83.4846L1501.1 56.8889ZM1590.99 12.7658C1589.52 13.3373 1587.93 13.8678 1586.25 14.3191C1576.82 16.8458 1564.28 16.8848 1550.92 7.71348L1542.7 16.8088C1573.71 43.032 1601.76 27.6497 1615.17 16.8029L1604.5 5.05892C1601.33 7.51188 1596.7 10.548 1590.99 12.7658ZM1591.47 -9.28899C1589.84 -8.43466 1587.68 -7.49952 1585.1 -6.89015C1580.5 -5.80036 1573.87 -5.61314 1566.96 -10.0518L1556.34 1.71177C1566.4 8.28737 1576.99 9.53526 1587.85 5.40332C1592.51 3.62791 1596.38 1.1553 1599.1 -0.889832L1591.47 -9.28899ZM1620.54 22.7247C1614.55 27.5898 1604.98 33.9664 1593.03 37.1671C1592.16 37.4013 1591.27 37.619 1590.37 37.8168C1581.42 39.7935 1572.49 39.6086 1563.81 37.2739C1554.68 34.8126 1545.79 29.9303 1537.33 22.7454L1530.19 30.6537C1543.61 44.5395 1558.59 51.7302 1574.76 52.0197C1590.73 52.3091 1605.14 45.7413 1614.41 40.184C1620.27 36.6681 1624.89 33.0982 1627.77 30.681L1620.54 22.7247ZM1633.16 36.6113C1630.07 39.22 1625.12 43.0726 1618.74 46.9184C1610.71 51.7542 1602.5 55.3015 1594.38 57.4777C1587.7 59.2669 1581.08 60.1297 1574.67 60.0214C1556.44 59.7091 1539.68 51.8323 1524.82 36.6057L1518.15 43.9766C1536.33 62.1331 1556.3 71.4737 1577.53 71.7434C1597.16 71.9922 1614.42 64.3358 1625.45 57.8684C1632.92 53.4877 1638.63 49.0396 1641.92 46.2608L1633.16 36.6113ZM1608.3 83.3446C1630.21 76.488 1646.64 63.8567 1652.99 58.4503L1647.31 52.1937C1643.81 55.1633 1637.76 59.9043 1629.72 64.6398C1622.53 68.8781 1612.86 73.5875 1601.6 76.6047C1594.17 78.5938 1586.06 79.8465 1577.51 79.7448C1554.19 79.4685 1532.43 69.4355 1512.79 49.9219L1506.68 56.6853C1537.78 85.7455 1571.96 94.7165 1608.3 83.3446Z" fill="#E1E4EC"/>
</g>
<g opacity="0.45">
<path d="M180.883 240.941C181.943 246.814 180.765 252.446 177.385 257.689C180.189 265.568 178.72 272.962 173.017 279.679C174.298 286.582 172.015 292.747 166.389 297.53C162.596 300.754 158.068 302.06 154.548 302.839C148.153 304.25 141.322 305.651 132.393 307.375C129.931 307.85 127.054 307.719 124.271 307.594C121.966 307.489 119.354 307.37 118.051 307.739C111.852 309.495 96.3152 321.635 90.8523 326.164L88.0812 328.46L41.329 259.618L39.4624 256.854L70.7729 235.842C71.931 234.792 74.9878 231.143 76.3228 227.617C76.8792 226.146 77.4299 224.706 77.9737 223.286C81.1143 215.079 84.0796 207.325 86.3539 198.454C88.1455 191.461 87.8958 185.218 85.5891 179.374C84.6053 176.884 83.7019 174.404 82.9 172C82.4616 170.685 81.6087 169.084 80.705 167.39C79.3448 164.839 77.9365 162.2 77.4293 159.588C76.7795 156.249 77.7631 153.454 80.2049 151.591L80.4307 150.979L85.6644 149.235L85.9229 149.193C91.1629 148.341 96.4348 149.32 101.59 152.101C106.442 154.716 122.571 164.047 126.486 174.278C128.373 179.21 128.495 184.339 128.462 188.761C128.457 189.42 128.447 190.081 128.44 190.739C128.383 194.838 128.331 198.709 129.235 202.446C130.126 206.121 132.067 206.692 133.657 206.775C137.65 206.989 141.837 206.697 145.887 206.417L146.527 206.372C148.166 206.259 149.803 206.042 151.533 205.813C153.689 205.528 155.916 205.233 158.193 205.145C161.584 205.016 163.491 205.114 165.162 206.025C167.089 207.074 167.848 208.772 168.727 210.736C169.15 211.679 169.675 212.854 170.452 214.286C171.199 215.659 172.399 217.266 173.671 218.964C177.264 223.767 181.699 229.696 179.098 235.513C179.262 236.037 179.479 236.592 179.708 237.177C180.143 238.295 180.634 239.555 180.883 240.941ZM168.437 222.892C167.019 220.996 165.681 219.207 164.708 217.417C163.811 215.764 163.226 214.462 162.758 213.417C162.486 212.807 162.153 212.063 161.956 211.76C161.602 211.674 160.692 211.603 158.439 211.69C156.469 211.764 154.486 212.028 152.389 212.304C150.633 212.537 148.818 212.778 146.974 212.904L146.336 212.949C142.304 213.227 138.141 213.511 133.971 213.337C120.096 236.854 107.034 246.129 94.3933 255.102C91.9909 256.807 89.5065 258.57 87.0506 260.408C81.5556 264.518 67.2028 272.895 60.7659 276.605L66.5354 285.102C72.4155 281.237 87.2756 271.437 92.7715 267.46C113.52 252.454 134.821 243.473 149.038 238.582C160.716 234.564 169.522 232.589 173.309 231.834C173.318 229.417 170.748 225.982 168.437 222.892ZM87.2219 155.614L84.7113 156.451C84.6372 156.499 84.5671 156.543 84.5028 156.578C83.8788 156.929 83.6132 157.135 83.847 158.344C84.1674 159.992 85.3396 162.191 86.4743 164.318C87.4663 166.176 88.4904 168.099 89.1037 169.938C89.866 172.228 90.73 174.597 91.6702 176.978C94.4623 184.048 94.804 191.821 92.6878 200.082C90.3216 209.316 87.2907 217.239 84.0816 225.628C83.5415 227.041 82.9922 228.473 82.4374 229.938C80.5137 235.013 76.4407 239.62 74.8789 240.94L74.7397 241.058L48.557 258.628L57.0799 271.177C63.1865 267.662 77.8547 259.119 83.1314 255.171C85.6524 253.285 88.1705 251.498 90.6065 249.769C102.978 240.986 114.694 232.668 127.528 211.375C125.285 209.782 123.67 207.265 122.875 203.99C121.774 199.449 121.836 194.978 121.895 190.655C121.904 190.009 121.913 189.362 121.918 188.717C121.949 184.717 121.853 180.488 120.374 176.62C117.9 170.158 107.034 162.475 98.4825 157.864C94.6595 155.797 90.9704 155.063 87.2219 155.614ZM116.267 301.449C116.901 301.268 117.58 301.149 118.292 301.071C120.189 300.864 122.334 300.962 124.568 301.063C126.969 301.173 129.454 301.285 131.153 300.957C140.022 299.244 146.803 297.856 153.138 296.457C155.92 295.843 159.461 294.842 162.155 292.552C165.973 289.305 167.406 285.662 166.635 281.13C137.894 281.336 119.859 292.351 111.984 297.161C111.621 297.384 111.274 297.595 110.948 297.793C105.644 301.01 92.8786 309.736 86.3309 314.24L89.4709 318.863C95.5182 314.014 109.252 303.436 116.267 301.449ZM174.447 242.101C174.31 241.34 173.973 240.477 173.617 239.565C173.485 239.228 173.353 238.886 173.221 238.535C169.058 239.425 161.085 241.344 151.014 244.818C137.256 249.561 116.648 258.262 96.6044 272.758C90.9526 276.845 76.1859 286.585 70.2102 290.51L74.9118 297.431C81.0096 293.357 95.3544 283.763 100.882 279.995C123.084 264.86 141.788 258.878 153.57 256.525C161.884 254.865 168.03 254.708 171.468 254.823C171.539 254.688 171.616 254.557 171.7 254.432C174.334 250.486 175.232 246.453 174.447 242.101ZM171.688 261.377C164.627 261.067 139.062 261.884 104.568 285.401C99.032 289.175 84.7165 298.748 78.5871 302.844L82.6514 308.83C89.2514 304.286 102.053 295.538 107.553 292.202C107.875 292.008 108.213 291.801 108.57 291.583C117.113 286.364 136.932 274.257 168.726 274.594C171.989 270.377 172.948 266.11 171.688 261.377Z" fill="#E1E4EC"/>
<path d="M-64.3799 274.747L-51.3938 264.301L-74.8326 235.16C-78.7923 230.238 -78.0082 223.012 -73.0863 219.055L-71.5057 217.782C-69.1221 215.864 -66.1325 214.989 -63.0908 215.32C-60.0491 215.65 -57.3183 217.145 -55.4002 219.528L-31.9614 248.669L-20.1471 239.167C-13.8239 234.081 -4.54076 235.088 0.544881 241.411L14.4764 258.731C17.484 262.202 21.1115 263.828 25.2633 263.563C28.5725 263.352 31.0434 262.005 31.0521 262.002L33.7096 260.494L81.7107 333.093L79.1499 334.926C78.384 335.475 60.1267 348.381 34.7158 352.288C33.3081 352.505 31.9059 352.69 30.5093 352.842C16.9961 354.316 4.04892 352.783 -8.03931 348.269C-24.625 342.077 -39.5472 330.255 -52.3888 313.132L-66.6196 295.439C-69.0837 292.375 -70.2077 288.537 -69.7833 284.628C-69.3634 280.719 -67.4435 277.211 -64.3799 274.747ZM-60.495 223.627C-61.3189 222.603 -62.4912 221.962 -63.7951 221.821C-65.099 221.679 -66.3827 222.055 -67.4069 222.877L-68.9876 224.149C-71.1003 225.847 -71.4359 228.949 -69.7378 231.061L-46.7739 259.612L-37.5289 252.177L-60.495 223.627ZM1.77156 253.368L-55.208 299.198L-49.3327 306.501L7.39223 260.354L1.77156 253.368ZM-22.4769 337.334L15.5037 349.949L48.7891 346.986L77.4296 334.315L33.7674 262.752L22.959 266.75L11.982 260.84L-49.8165 311.114L-22.4769 337.334ZM-61.5294 291.34L-59.3067 294.103L-2.32721 248.273L-4.54987 245.51C-7.37611 241.996 -12.534 241.437 -16.0459 244.263L-60.2809 279.844C-61.9826 281.214 -63.0494 283.163 -63.2844 285.334C-63.5195 287.506 -62.8968 289.638 -61.5294 291.34Z" fill="#E1E4EC"/>
<path d="M-49.8181 311.113L11.9805 260.84L22.9575 266.75L33.7659 262.751L77.4281 334.315L48.7876 346.986L15.5021 349.948L-22.4785 337.333L-49.8181 311.113ZM28.3086 286.679C27.0482 286.957 25.701 287.188 24.2842 287.343C16.3507 288.208 6.21401 286.675 -3.43639 277.599L-11.208 283.922C10.5762 308.976 35.1515 300.047 47.3376 292.956L40.1853 282.138C37.314 283.724 33.1972 285.599 28.3086 286.679ZM31.4443 268.921C30.0276 269.409 28.1592 269.894 26.0047 270.065C22.1524 270.372 16.7684 269.695 11.7444 265.248L1.69115 273.426C9.00383 279.994 17.399 282.323 26.6872 280.339C30.6774 279.486 34.1098 277.971 36.5617 276.658L31.4443 268.921ZM50.9426 298.411C45.4916 301.594 36.9653 305.552 26.9156 306.648C26.1803 306.728 25.4366 306.793 24.6864 306.841C17.2054 307.321 10.0107 306.057 3.29699 303.089C-3.77668 299.961 -10.3526 294.908 -16.2861 288.049L-23.0429 293.547C-13.936 306.439 -2.72534 314.117 10.2979 316.367C23.1665 318.594 35.6253 315.085 43.8091 311.751C48.9847 309.642 53.1586 307.334 55.7886 305.741L50.9426 298.411ZM59.4012 311.204C56.5835 312.926 52.0986 315.421 46.4642 317.732C39.3747 320.637 32.3008 322.479 25.468 323.224C19.8502 323.837 14.3943 323.708 9.23231 322.822C-5.45882 320.295 -18.0199 311.84 -28.1266 297.685L-34.4275 302.809C-22.0078 319.745 -7.04212 329.782 10.0816 332.649C25.902 335.297 40.8058 331.265 50.5212 327.416C57.1033 324.808 62.2695 321.927 65.277 320.092L59.4012 311.204ZM33.4914 345.859C52.0494 343.053 66.8936 334.897 72.701 331.321L68.8899 325.558C65.6969 327.521 60.2138 330.596 53.1289 333.419C46.7875 335.946 38.3898 338.545 28.9162 339.578C22.6707 340.259 15.9562 340.258 9.0598 339.109C-9.73953 335.978 -26.07 325.158 -39.5071 306.943L-45.2869 311.645C-23.7823 339.002 2.71099 350.513 33.4914 345.859Z" fill="#E1E4EC"/>
<path opacity="0.84" d="M-49.8181 311.113L11.9805 260.84L22.9575 266.75L33.7659 262.751L77.4281 334.315L48.7876 346.986L15.5021 349.948L-22.4785 337.333L-49.8181 311.113ZM28.3086 286.679C27.0482 286.957 25.701 287.188 24.2842 287.343C16.3507 288.208 6.21401 286.675 -3.43639 277.599L-11.208 283.922C10.5762 308.976 35.1515 300.047 47.3376 292.956L40.1853 282.138C37.314 283.724 33.1972 285.599 28.3086 286.679ZM31.4443 268.921C30.0276 269.409 28.1592 269.894 26.0047 270.065C22.1524 270.372 16.7684 269.695 11.7444 265.248L1.69115 273.426C9.00383 279.994 17.399 282.323 26.6872 280.339C30.6774 279.486 34.1098 277.971 36.5617 276.658L31.4443 268.921ZM50.9426 298.411C45.4916 301.594 36.9653 305.552 26.9156 306.648C26.1803 306.728 25.4366 306.793 24.6864 306.841C17.2054 307.321 10.0107 306.057 3.29699 303.089C-3.77668 299.961 -10.3526 294.908 -16.2861 288.049L-23.0429 293.547C-13.936 306.439 -2.72534 314.117 10.2979 316.367C23.1665 318.594 35.6253 315.085 43.8091 311.751C48.9847 309.642 53.1586 307.334 55.7886 305.741L50.9426 298.411ZM59.4012 311.204C56.5835 312.926 52.0986 315.421 46.4642 317.732C39.3747 320.637 32.3008 322.479 25.468 323.224C19.8502 323.837 14.3943 323.708 9.23231 322.822C-5.45882 320.295 -18.0199 311.84 -28.1266 297.685L-34.4275 302.809C-22.0078 319.745 -7.04212 329.782 10.0816 332.649C25.902 335.297 40.8058 331.265 50.5212 327.416C57.1033 324.808 62.2695 321.927 65.277 320.092L59.4012 311.204ZM33.4914 345.859C52.0494 343.053 66.8936 334.897 72.701 331.321L68.8899 325.558C65.6969 327.521 60.2138 330.596 53.1289 333.419C46.7875 335.946 38.3898 338.545 28.9162 339.578C22.6707 340.259 15.9562 340.258 9.0598 339.109C-9.73953 335.978 -26.07 325.158 -39.5071 306.943L-45.2869 311.645C-23.7823 339.002 2.71099 350.513 33.4914 345.859Z" fill="#E1E4EC"/>
</g>
<g opacity="0.35">
<path d="M1728.92 396.293C1733.22 400.448 1738.57 402.604 1744.81 402.712C1749.81 409.434 1756.78 412.331 1765.55 411.326C1770.58 416.238 1776.99 417.772 1784.1 415.754C1788.9 414.393 1792.51 411.351 1795.12 408.855C1799.86 404.318 1804.83 399.412 1811.24 392.941C1813 391.156 1814.5 388.689 1815.94 386.302C1817.14 384.325 1818.5 382.084 1819.53 381.205C1824.44 377.024 1843.2 370.854 1850.02 368.83L1853.47 367.802L1822.21 290.535L1820.95 287.442L1786.02 301.798C1784.5 302.178 1779.76 302.689 1776.08 301.836C1774.55 301.479 1773.04 301.136 1771.56 300.798C1762.98 298.84 1754.87 296.988 1746.22 293.94C1739.4 291.535 1734.34 287.849 1730.76 282.674C1729.24 280.468 1727.68 278.334 1726.12 276.327C1725.27 275.23 1724.42 273.628 1723.51 271.932C1722.14 269.379 1720.73 266.736 1718.84 264.859C1716.42 262.458 1713.55 261.72 1710.64 262.714L1710 262.561L1705.63 265.946L1705.46 266.138C1701.83 270.025 1699.71 274.958 1699.15 280.799C1698.62 286.294 1697.4 304.919 1703.74 313.876C1706.79 318.195 1710.99 321.154 1714.69 323.59C1715.24 323.952 1715.8 324.313 1716.35 324.673C1719.8 326.909 1723.05 329.023 1725.65 331.857C1728.22 334.646 1727.61 336.579 1726.79 337.949C1724.75 341.392 1722.17 344.715 1719.68 347.93L1719.29 348.438C1718.28 349.739 1717.19 350.98 1716.03 352.293C1714.6 353.929 1713.11 355.618 1711.77 357.465C1709.77 360.215 1708.79 361.858 1708.62 363.756C1708.42 365.945 1709.41 367.522 1710.55 369.348C1711.1 370.225 1711.79 371.316 1712.55 372.762C1713.27 374.148 1713.94 376.042 1714.65 378.047C1716.65 383.713 1719.11 390.708 1725.4 391.783C1725.75 392.212 1726.09 392.701 1726.45 393.218C1727.13 394.204 1727.91 395.314 1728.92 396.293ZM1720.83 375.879C1720.05 373.642 1719.3 371.532 1718.35 369.724C1717.48 368.056 1716.72 366.845 1716.11 365.873C1715.76 365.306 1715.32 364.615 1715.18 364.283C1715.3 363.94 1715.75 363.142 1717.08 361.316C1718.24 359.718 1719.56 358.214 1720.96 356.622C1722.13 355.29 1723.34 353.913 1724.48 352.448L1724.87 351.943C1727.35 348.742 1729.9 345.434 1732.08 341.866C1759.39 343.418 1774.38 337.713 1788.89 332.189C1791.65 331.139 1794.5 330.054 1797.4 329.033C1803.88 326.749 1818.85 319.469 1825.53 316.177L1829.38 325.713C1822.89 328.455 1806.46 335.365 1800.08 337.724C1776.03 346.634 1756.69 359.362 1744.7 368.472C1734.85 375.954 1728.3 382.184 1725.56 384.916C1723.55 383.576 1722.12 379.523 1720.83 375.879ZM1710.08 270.796L1712.17 269.172C1712.25 269.138 1712.33 269.104 1712.39 269.07C1713.03 268.746 1713.35 268.64 1714.23 269.508C1715.42 270.693 1716.6 272.894 1717.74 275.023C1718.73 276.884 1719.76 278.808 1720.95 280.342C1722.43 282.252 1723.92 284.292 1725.38 286.401C1729.71 292.663 1735.99 297.278 1744.05 300.119C1753.05 303.293 1761.33 305.184 1770.1 307.186C1771.58 307.524 1773.08 307.865 1774.61 308.219C1779.9 309.445 1786.01 308.621 1787.98 308.056L1788.15 308.006L1817.36 296L1823.06 310.085C1816.73 313.21 1801.45 320.661 1795.23 322.853C1792.25 323.901 1789.36 325.002 1786.56 326.066C1772.36 331.471 1758.91 336.59 1734.04 335.41C1733.96 332.656 1732.77 329.91 1730.48 327.423C1727.32 323.977 1723.56 321.538 1719.93 319.179C1719.39 318.827 1718.84 318.473 1718.3 318.118C1714.96 315.915 1711.49 313.479 1709.09 310.094C1705.09 304.434 1704.75 291.11 1705.68 281.423C1706.09 277.089 1707.53 273.609 1710.08 270.796ZM1815.29 376.216C1814.78 376.643 1814.31 377.142 1813.84 377.692C1812.62 379.155 1811.5 380.995 1810.34 382.911C1809.1 384.97 1807.8 387.101 1806.58 388.333C1800.22 394.761 1795.29 399.632 1790.59 404.126C1788.53 406.1 1785.73 408.489 1782.32 409.457C1777.49 410.825 1773.66 409.989 1770.31 406.822C1786.5 383.013 1805.71 374.138 1814.1 370.262C1814.49 370.084 1814.86 369.913 1815.21 369.752C1820.84 367.129 1835.21 361.364 1842.61 358.423L1844.71 363.613C1837.3 365.945 1820.85 371.484 1815.29 376.216ZM1733.48 391.582C1732.92 391.044 1732.39 390.283 1731.83 389.479C1731.62 389.181 1731.41 388.88 1731.19 388.575C1734.25 385.606 1740.29 380.039 1748.79 373.59C1760.4 364.781 1779.13 352.475 1802.36 343.866C1808.91 341.438 1825.24 334.573 1831.84 331.785L1834.98 339.554C1828.19 342.36 1812.22 348.956 1806 351.458C1781.03 361.507 1765.63 373.744 1757.11 382.24C1751.1 388.236 1747.54 393.264 1745.72 396.19C1745.57 396.174 1745.42 396.165 1745.27 396.165C1740.52 396.159 1736.66 394.66 1733.48 391.582ZM1751.06 400.024C1754.73 393.974 1769.65 373.149 1808.45 357.538C1814.67 355.032 1830.62 348.449 1837.44 345.629L1840.16 352.347C1832.7 355.309 1818.29 361.092 1812.44 363.812C1812.1 363.971 1811.74 364.137 1811.36 364.313C1802.26 368.517 1781.14 378.269 1763.71 404.922C1758.38 405.288 1754.3 403.71 1751.06 400.024Z" fill="#E1E4EC"/>
<path d="M1893.7 210.973L1877.77 215.962L1866.57 180.218C1864.68 174.181 1858.23 170.808 1852.19 172.7L1850.25 173.307C1847.33 174.222 1844.93 176.223 1843.51 178.939C1842.09 181.655 1841.82 184.761 1842.73 187.685L1853.93 223.429L1839.44 227.97C1831.68 230.4 1827.35 238.688 1829.78 246.444L1836.44 267.689C1837.65 272.126 1836.98 276.052 1834.45 279.36C1832.43 281.997 1829.93 283.303 1829.92 283.309L1827.19 284.681L1860.88 365.08L1863.83 363.97C1864.71 363.638 1885.63 355.631 1903.04 336.656C1904 335.605 1904.94 334.541 1905.84 333.463C1914.6 323.036 1920.53 311.405 1923.51 298.828C1927.59 281.573 1926.07 262.566 1918.97 242.338L1912.17 220.635C1910.99 216.878 1908.42 213.804 1904.93 211.979C1901.44 210.151 1897.45 209.795 1893.7 210.973ZM1848.98 185.728C1848.59 184.472 1848.71 183.139 1849.32 181.975C1849.92 180.811 1850.95 179.951 1852.21 179.557L1854.15 178.95C1856.74 178.137 1859.51 179.586 1860.32 182.176L1871.29 217.196L1859.95 220.75L1848.98 185.728ZM1839.05 254.126L1908.94 232.229L1911.75 241.188L1841.73 262.696L1839.05 254.126ZM1922.45 280.718L1911.79 319.361L1890.78 345.417L1864.28 362.198L1829.04 285.987L1838.38 279.217L1839.58 266.788L1915.85 243.354L1922.45 280.718ZM1905.92 222.589L1906.98 225.979L1837.09 247.876L1836.03 244.486C1834.68 240.176 1837.09 235.572 1841.4 234.223L1895.66 217.224C1897.74 216.571 1899.96 216.768 1901.9 217.783C1903.84 218.797 1905.27 220.503 1905.92 222.589Z" fill="#E1E4EC"/>
<path d="M1858.07 185.12C1857.58 183.582 1855.95 182.726 1854.41 183.208C1852.87 183.689 1852.02 185.327 1852.5 186.865C1852.98 188.403 1854.62 189.259 1856.15 188.777C1857.69 188.295 1858.55 186.658 1858.07 185.12Z" fill="#E1E4EC"/>
<path d="M1915.86 243.353L1839.58 266.786L1838.39 279.216L1829.04 285.985L1864.28 362.196L1890.78 345.415L1911.79 319.359L1922.45 280.717L1915.86 243.353ZM1851.99 294.773C1852.93 293.878 1853.87 292.885 1854.79 291.792C1859.93 285.67 1864.3 276.379 1862.12 263.29L1871.71 260.344C1880.43 292.434 1859.31 307.915 1846.62 314.109L1841.6 302.129C1844.52 300.622 1848.37 298.24 1851.99 294.773ZM1835.46 287.489C1836.66 286.582 1838.1 285.297 1839.45 283.599C1841.85 280.563 1844.29 275.705 1843.38 269.046L1855.79 265.233C1857.18 274.979 1854.44 283.264 1847.62 289.891C1844.69 292.737 1841.51 294.75 1839.05 296.06L1835.46 287.489ZM1849.15 320.149C1854.84 317.384 1862.88 312.492 1869.39 304.737C1869.87 304.17 1870.34 303.587 1870.79 302.989C1875.36 297.03 1878.32 290.337 1879.59 283.095C1880.92 275.465 1880.38 267.175 1877.98 258.415L1886.32 255.854C1891.97 270.616 1892.12 284.226 1886.74 296.32C1881.42 308.271 1871.56 316.687 1864.23 321.642C1859.59 324.776 1855.34 326.964 1852.55 328.265L1849.15 320.149ZM1855.09 334.316C1858.09 332.93 1862.66 330.587 1867.73 327.184C1874.09 322.901 1879.57 318.039 1884 312.767C1887.64 308.432 1890.57 303.819 1892.71 299.028C1898.79 285.392 1898.75 270.226 1892.59 253.928L1900.37 251.538C1907.55 271.31 1907.56 289.359 1900.41 305.21C1893.8 319.854 1882.14 330.013 1873.53 335.956C1867.69 339.982 1862.41 342.677 1859.21 344.159L1855.09 334.316ZM1898.37 332.055C1885.69 345.939 1870.63 353.752 1864.42 356.594L1861.75 350.211C1865.16 348.647 1870.78 345.795 1877.07 341.471C1882.71 337.6 1889.55 332.058 1895.69 324.747C1899.73 319.928 1903.47 314.339 1906.36 307.958C1914.23 290.566 1914.32 270.945 1906.64 249.612L1913.77 247.421C1924.57 280.561 1919.39 309.026 1898.37 332.055Z" fill="#E1E4EC"/>
<path opacity="0.84" d="M1915.86 243.353L1839.58 266.786L1838.39 279.216L1829.04 285.985L1864.28 362.196L1890.78 345.415L1911.79 319.359L1922.45 280.717L1915.86 243.353ZM1851.99 294.773C1852.93 293.878 1853.87 292.885 1854.79 291.792C1859.93 285.67 1864.3 276.379 1862.12 263.29L1871.71 260.344C1880.43 292.434 1859.31 307.915 1846.62 314.109L1841.6 302.129C1844.52 300.622 1848.37 298.24 1851.99 294.773ZM1835.46 287.489C1836.66 286.582 1838.1 285.297 1839.45 283.599C1841.85 280.563 1844.29 275.705 1843.38 269.046L1855.79 265.233C1857.18 274.979 1854.44 283.264 1847.62 289.891C1844.69 292.737 1841.51 294.75 1839.05 296.06L1835.46 287.489ZM1849.15 320.149C1854.84 317.384 1862.88 312.492 1869.39 304.737C1869.87 304.17 1870.34 303.587 1870.79 302.989C1875.36 297.03 1878.32 290.337 1879.59 283.095C1880.92 275.465 1880.38 267.175 1877.98 258.415L1886.32 255.854C1891.97 270.616 1892.12 284.226 1886.74 296.32C1881.42 308.271 1871.56 316.687 1864.23 321.642C1859.59 324.776 1855.34 326.964 1852.55 328.265L1849.15 320.149ZM1855.09 334.316C1858.09 332.93 1862.66 330.587 1867.73 327.184C1874.09 322.901 1879.57 318.039 1884 312.767C1887.64 308.432 1890.57 303.819 1892.71 299.028C1898.79 285.392 1898.75 270.226 1892.59 253.928L1900.37 251.538C1907.55 271.31 1907.56 289.359 1900.41 305.21C1893.8 319.854 1882.14 330.013 1873.53 335.956C1867.69 339.982 1862.41 342.677 1859.21 344.159L1855.09 334.316ZM1898.37 332.055C1885.69 345.939 1870.63 353.752 1864.42 356.594L1861.75 350.211C1865.16 348.647 1870.78 345.795 1877.07 341.471C1882.71 337.6 1889.55 332.058 1895.69 324.747C1899.73 319.928 1903.47 314.339 1906.36 307.958C1914.23 290.566 1914.32 270.945 1906.64 249.612L1913.77 247.421C1924.57 280.561 1919.39 309.026 1898.37 332.055Z" fill="#E1E4EC"/>
</g>
</g>
</svg>
