<svg width="54" height="38" viewBox="0 0 54 38" fill="none" xmlns="http://www.w3.org/2000/svg">
<path d="M31.0455 18.6543L30.7966 22.4812L34.1284 22.1449L37.1979 20.423L38.9053 17.1345L35.0275 16.2302L34.1383 17.9383L31.0455 18.6543Z" fill="#3576CB"/>
<path d="M30.269 26.2093L30.7968 22.4811L34.5692 22.3629L36.9822 21.0391L39.5118 17.2758L42.458 17.9626L40.5905 22.7734L37.3157 25.3258L30.682 26.6127L30.269 26.2093Z" fill="#3583CB"/>
<path d="M29.9702 29.6083L30.2087 26.7962L34.9096 26.2582L39.2565 24.1522L41.7845 20.2144L42.8018 18.043L45.6654 18.7105L43.3832 24.8352L39.2523 28.3518L31.624 29.7637L29.9702 29.6083Z" fill="#1F7EA7"/>
<path d="M29.543 33.2722L30.0716 29.8743L36.7007 29.2753L41.697 26.7353L44.5923 22.5617L45.6653 18.7104L49.0432 19.4981L45.5977 27.3502L41.5301 31.0974L36.6427 32.9913L31.9042 33.4509L29.543 33.2722Z" fill="#007082"/>
<path d="M29.2476 36.1425L29.8853 33.32L36.0599 33.2171L40.1159 31.9313L44.1137 29.0946L47.284 24.3047L48.5666 19.6826L51.838 20.0091L48.0108 28.8721L42.6946 33.7209L37.9643 35.7741L31.4636 36.6901L29.2476 36.1425Z" fill="#004951"/>
<path d="M6.6167 34.6432L12.795 32.1848L22.7363 32.372L26.958 32.9896L26.1859 35.1296L19.0546 34.5317L13.5675 36.5831L8.23618 37.2972L6.6167 34.6432Z" fill="#004951"/>
<path d="M3.94849 31.3713L9.21827 29.1629L18.7017 28.539L27.0414 30.3528L26.6908 32.7986L15.2535 31.8673L9.55161 33.0544L5.93729 34.455L3.94849 31.3713Z" fill="#007082"/>
<path d="M3.8223 31.0402L1.76758 28.6841L1.81353 26.4519L13.4115 25.2078L27.7761 27.015L27.0412 30.3527L14.0786 28.6164L7.63521 29.3409L3.8223 31.0402Z" fill="#1F7EA7"/>
<path d="M0.703857 25.9065L1.63837 20.2041L7.29804 17.7628C7.29804 17.7628 13.2301 21.1257 15.4491 21.5534C17.6681 21.9811 28.0047 23.2204 28.0047 23.2204L27.4096 26.824L15.5363 25.2883L3.81764 26.0602L0.703857 25.9065Z" fill="#3583CB"/>
<path d="M7.18178 18.1941L8.06202 15.6338L5.1936 10.442L6.81621 5.72827L10.102 2.51862L12.2933 2.85113L12.7872 8.78696L17.0861 14.2831L20.3446 17.6416L28.0631 18.8048L27.4482 23.3571L14.8926 21.6901L7.18178 18.1941Z" fill="#3576CB"/>
<path d="M6.71723 35.0696L6.07593 33.8253C8.72932 32.4353 11.4825 31.5702 14.259 31.2542C16.5608 30.9924 18.3741 31.1624 19.4575 31.2641C19.5463 31.2725 19.6303 31.2802 19.7097 31.2876C21.5469 31.4538 26.8383 32.2623 27.0625 32.2967L26.8537 33.6831C26.7992 33.6748 21.3804 32.8468 19.5854 32.6843C19.5045 32.677 19.4188 32.669 19.3286 32.6604C17.2951 32.4696 12.5329 32.0229 6.71723 35.0696Z" fill="#191919"/>
<path d="M27.3237 27.5196C27.0987 27.4915 21.7938 26.8256 19.9809 26.5109C14.7823 25.6086 10.0199 25.8815 6.94041 26.2694C3.61077 26.6887 1.50137 27.3238 1.48036 27.3301L1.07861 25.9876C1.16865 25.9602 3.32277 25.3119 6.76802 24.8781C8.78634 24.6238 10.8309 24.4976 12.8455 24.5012C15.3658 24.5064 17.8459 24.7175 20.2169 25.1293C21.998 25.4385 27.4406 26.1216 27.4953 26.1283L27.3237 27.5196Z" fill="#191919"/>
<path d="M4.21537 31.6185L3.42871 30.462C3.48569 30.4226 4.85751 29.4871 7.58181 28.7608C9.15888 28.3404 10.8769 28.0727 12.6886 27.9654C14.9419 27.8318 17.3482 27.9471 19.8411 28.3084C21.6427 28.5694 27.0903 29.304 27.145 29.3114L26.9607 30.7012C26.9059 30.6939 21.4516 29.9582 19.6433 29.6963C17.7731 29.4254 16.075 29.3143 14.5495 29.3143C7.64337 29.3143 4.25613 31.5902 4.21537 31.6185Z" fill="#191919"/>
<path d="M27.9625 23.9202C27.7395 23.9066 22.4841 23.5806 20.6496 23.2313C20.0087 23.1093 19.3693 23.004 18.7509 22.9023C17.0815 22.6279 15.3555 22.344 13.4476 21.7031C11.3137 20.9861 9.17493 19.8872 6.90894 18.3437L7.68749 17.1818C12.4881 20.4521 15.6389 20.9699 18.9748 21.5184C19.6018 21.6215 20.2499 21.728 20.9079 21.8534C22.6567 22.1864 27.9934 22.5172 28.0473 22.5205L27.9625 23.9202Z" fill="#191919"/>
<path d="M10.0716 38C9.71686 38 9.34713 37.9625 8.9722 37.8662C8.21216 37.6715 7.5773 37.3343 7.08509 36.8645C6.58935 36.3913 6.23667 35.7826 6.03538 35.0543C4.31754 34.2989 3.34497 33.0139 3.14264 31.2322C2.00643 30.5416 1.25449 29.568 0.907222 28.3373C0.825083 28.0465 0.80117 27.758 0.780167 27.5035C0.768938 27.3689 0.758541 27.2418 0.740658 27.125C0.271531 26.7277 0.0232435 26.1338 0.00161714 25.3568C-0.0156424 24.7297 0.108293 24.0674 0.228278 23.4269C0.31208 22.9795 0.3911 22.557 0.405032 22.2222C0.419589 21.8729 0.410023 21.5972 0.402329 21.3758C0.386317 20.9143 0.372593 20.516 0.642299 20.1321C0.876446 19.799 1.23162 19.6 1.89101 19.305C2.33394 19.1069 2.78705 18.9532 3.2254 18.8048C3.57767 18.6855 3.91038 18.5727 4.23394 18.44L4.36017 18.3882C5.15993 18.0601 5.98714 17.7206 6.7295 17.3028C7.0252 17.1363 7.34253 16.8436 7.16848 16.0517C6.99152 15.2467 6.61908 14.5064 6.22482 13.7227C6.16139 13.5964 6.09797 13.4704 6.03517 13.3438C5.61491 12.4955 5.15806 11.4961 5.05699 10.3683C4.84738 8.02939 7.05452 4.71051 7.73596 3.74923C8.46045 2.72715 9.37562 2.04136 10.4561 1.71114L10.5095 1.69479L11.6724 1.5365L11.7726 1.63294C12.4133 1.76104 12.8627 2.20657 13.0511 2.91081C13.1985 3.46179 13.1767 4.1025 13.1557 4.72225C13.1417 5.13381 13.1284 5.52252 13.1679 5.81729C13.2399 6.35528 13.2994 6.91842 13.3447 7.49078C13.4509 8.83385 13.9872 10.0591 14.9841 11.237C16.2484 12.7306 17.5406 13.9436 18.9085 15.2278C19.1426 15.4475 19.3847 15.6748 19.629 15.9056C20.2142 16.4585 21.1397 16.8728 21.4589 16.9656L29.4044 18.0567L29.3075 18.7666L26.8221 36.4326L26.0781 36.2517C24.6106 35.895 20.507 35.0237 19.1591 35.2702C18.876 35.322 18.3882 35.5916 17.9576 35.8294C17.4379 36.1164 16.9006 36.4131 16.3859 36.554C14.5198 37.0643 13.0837 37.4398 11.73 37.7713C11.2577 37.887 10.6873 38 10.0716 38ZM1.79037 20.9322C1.78143 21.0087 1.78746 21.1833 1.79245 21.3269C1.80097 21.5725 1.81158 21.8779 1.79474 22.2811C1.77664 22.7176 1.68848 23.1887 1.5949 23.6873C1.41357 24.6559 1.20791 25.7537 1.67725 26.0839C2.02514 26.3285 2.0921 26.7619 2.11414 26.9043C2.13993 27.0716 2.15323 27.2318 2.16613 27.3867C2.1836 27.5961 2.20002 27.7941 2.24494 27.9536C2.50217 28.8654 3.05135 29.5573 3.92348 30.0691C4.23935 30.2544 4.48244 30.6272 4.51446 30.9758C4.63944 32.3365 5.32275 33.2343 6.66504 33.801C6.9911 33.9387 7.26892 34.2633 7.35667 34.6086C7.61556 35.6279 8.23774 36.2313 9.3149 36.5074C10.0437 36.6942 10.8134 36.5527 11.4025 36.4087C12.7437 36.0804 14.1686 35.7078 16.0224 35.2008C16.3778 35.1038 16.8415 34.8476 17.2898 34.6C17.8638 34.283 18.4061 33.9834 18.911 33.8909C19.7469 33.7379 21.226 33.8595 23.4332 34.2628C24.3091 34.4228 25.1099 34.5937 25.6592 34.7163L27.8344 19.2564L21.1897 18.3439L21.152 18.3345C20.7297 18.2274 19.5205 17.7246 18.6785 16.929C18.4358 16.6996 18.1946 16.4732 17.9613 16.2541C16.5633 14.9416 15.2428 13.7021 13.9267 12.1473C13.3626 11.4808 12.9128 10.7784 12.59 10.0601C12.2382 9.27707 12.0259 8.45018 11.9587 7.60232C11.9155 7.05511 11.8587 6.51776 11.7901 6.00473C11.735 5.59275 11.7508 5.12584 11.7662 4.67445C11.7836 4.15806 11.8019 3.62427 11.7088 3.27624C11.6406 3.02172 11.5705 3.00704 11.4183 2.99823C11.4029 2.9974 11.3854 2.99572 11.3667 2.9932L10.8092 3.0691C10.041 3.31628 9.40577 3.80605 8.86802 4.56459C7.6663 6.25988 6.31008 8.76425 6.44254 10.2423C6.52177 11.1267 6.8996 11.95 7.27994 12.7173C7.34128 12.8413 7.40346 12.965 7.46563 13.0884C7.88173 13.9153 8.31177 14.7705 8.52678 15.7486C8.79378 16.964 8.386 17.9768 7.40782 18.5274C6.5908 18.9872 5.72346 19.343 4.88481 19.6872L4.75901 19.7388C4.3951 19.8883 4.02579 20.0132 3.66875 20.1342C3.24204 20.2787 2.83904 20.4151 2.45559 20.5869C2.20127 20.7005 1.88873 20.8489 1.79037 20.9322ZM3.22145 31.2792C3.22229 31.2798 3.22333 31.2802 3.22416 31.2809C3.22333 31.2805 3.22229 31.2798 3.22145 31.2792ZM10.9046 2.72987C10.9046 2.72987 10.9049 2.73008 10.9049 2.73029C10.9046 2.73008 10.9046 2.72987 10.9046 2.72987Z" fill="#191919"/>
<path d="M47.184 12.1257L42.0093 10.9496L44.0288 1.91708C44.1719 1.27699 44.5537 0.731464 45.1039 0.380916C45.6541 0.0303686 46.3067 -0.0832654 46.9415 0.060979L47.3626 0.156792C47.9975 0.301037 48.5385 0.685968 48.8862 1.24072C49.2339 1.79527 49.3466 2.45338 49.2035 3.09347L47.184 12.1257ZM43.672 9.89015L46.133 10.4495L47.8467 2.78506C47.9735 2.21794 47.619 1.6527 47.0567 1.52502L46.6356 1.4292C46.3632 1.36736 46.0831 1.416 45.8471 1.56653C45.6111 1.71707 45.4472 1.95104 45.3859 2.22569L43.672 9.89015Z" fill="#191919"/>
<path d="M52.0603 20.9211L34.1975 16.7562L35.3928 11.4098C35.7723 9.71238 37.4508 8.6425 39.1346 9.02533L50.913 11.7024C51.7286 11.8878 52.4238 12.3824 52.8704 13.0948C53.3171 13.8074 53.4618 14.6525 53.278 15.4748L52.0603 20.9211ZM35.8584 15.7042L51.011 19.2371L51.9212 15.1662C52.0233 14.7094 51.9428 14.2397 51.6947 13.8437C51.4464 13.4478 51.0603 13.173 50.6072 13.07L38.8287 10.3929C37.8933 10.1803 36.9605 10.7747 36.7496 11.718L35.8584 15.7042Z" fill="#191919"/>
<path d="M35.748 12.2713L35.4421 13.6394L51.9701 17.3958L52.276 16.0278L35.748 12.2713Z" fill="#191919"/>
<path d="M46.5159 3.57906C46.8582 3.57906 47.1358 3.29924 47.1358 2.95406C47.1358 2.60889 46.8582 2.32907 46.5159 2.32907C46.1735 2.32907 45.896 2.60889 45.896 2.95406C45.896 3.29924 46.1735 3.57906 46.5159 3.57906Z" fill="#191919"/>
<path d="M32.1531 37.0352C30.3487 37.0352 29.1828 36.8421 29.1333 36.834L28.4724 36.7226L30.8459 18.2061L31.4916 18.2533C31.5301 18.2548 32.1125 18.2717 32.7453 18.0078C33.5648 17.666 34.1065 17.0081 34.355 16.0521L35.7004 16.4077C35.2375 18.1877 34.0922 18.9791 33.2128 19.3297C32.785 19.5001 32.3828 19.5832 32.0668 19.6226L30.0274 35.5322C30.5373 35.5827 31.3148 35.6368 32.2708 35.6324C33.8721 35.6245 36.3182 35.4444 38.8766 34.6305C45.3801 32.5616 49.4093 27.6218 50.8522 19.9482L52.2186 20.2094C51.3696 24.7254 49.6253 28.415 47.0343 31.1753C44.9532 33.3924 42.3324 35.0104 39.2449 35.9838C36.5168 36.844 33.9214 37.0302 32.2246 37.035C32.2005 37.0352 32.1766 37.0352 32.1531 37.0352Z" fill="#191919"/>
<path d="M32.1229 23.0049C31.2078 23.0049 30.5843 22.878 30.5415 22.8692L30.8241 21.4962L30.6829 22.1828L30.8226 21.496C30.8378 21.4991 32.3523 21.7998 34.0441 21.3727C36.2323 20.8205 37.7046 19.3399 38.4199 16.9722L39.7503 17.3808C38.6617 20.9832 36.2005 22.287 34.3276 22.7466C33.5172 22.9451 32.7513 23.0049 32.1229 23.0049Z" fill="#191919"/>
<path d="M32.1622 27.1807C31.4477 27.1807 30.8326 27.1274 30.3716 27.0687L30.5458 25.6774C33.3354 26.0326 40.0143 25.9772 41.7783 17.8133L43.1372 18.1119C42.6654 20.2953 41.8253 22.1237 40.64 23.5464C39.636 24.7516 38.3798 25.6738 36.9063 26.2873C35.218 26.9905 33.5126 27.1807 32.1622 27.1807Z" fill="#191919"/>
<path d="M32.4478 30.4832C30.9277 30.4832 29.9055 30.3085 29.8518 30.2993L29.9708 29.606L30.0882 28.9172C30.0884 28.9172 30.0887 28.9172 30.0889 28.9172C30.1273 28.9237 31.6638 29.1795 33.7142 29.037C35.5892 28.9068 38.2967 28.4065 40.5463 26.7636C42.868 25.0681 44.3022 22.4637 44.8092 19.0233L46.1849 19.2293C45.6204 23.0613 43.9949 25.9803 41.3537 27.9054C40.2329 28.7225 38.9274 29.3563 37.4734 29.7894C36.3218 30.1324 35.0748 30.3511 33.767 30.4389C33.2977 30.4706 32.8548 30.4832 32.4478 30.4832Z" fill="#191919"/>
<path d="M32.2247 34.1551C30.5732 34.1551 29.486 33.9736 29.4268 33.9635L29.6586 32.5808C29.6765 32.5838 31.4665 32.8796 33.898 32.6869C36.1139 32.5112 39.3375 31.8814 42.1109 29.8783C45.1941 27.6515 47.1353 24.1834 47.8804 19.5701L49.2532 19.7954C48.4456 24.7956 46.3116 28.574 42.9106 31.0258C41.5619 31.998 40.0117 32.7573 38.3025 33.2825C36.9447 33.6998 35.484 33.9711 33.9612 34.0887C33.3353 34.1367 32.7512 34.1551 32.2247 34.1551Z" fill="#191919"/>
</svg>
