<svg width="28" height="28" viewBox="0 0 28 28" fill="none" xmlns="http://www.w3.org/2000/svg">
<circle cx="14" cy="14" r="14" fill="#3576CB"/>
<path d="M16.12 15.64H12.9V17.26H17.86V18.62H12.9V21H11.06V18.62H9.36V17.26H11.06V15.64H9.36V13.96H11.06V7H16.12C17.3333 7 18.3667 7.42667 19.22 8.28C20.0733 9.12 20.5 10.14 20.5 11.34C20.5 12.54 20.0733 13.56 19.22 14.4C18.3667 15.2267 17.3333 15.64 16.12 15.64ZM16.12 8.74H12.9V13.96H16.12C16.8 13.96 17.3933 13.7067 17.9 13.2C18.4067 12.6667 18.66 12.0467 18.66 11.34C18.66 10.6067 18.4133 9.99333 17.92 9.5C17.4133 8.99333 16.8133 8.74 16.12 8.74Z" fill="white"/>
<rect x="4.08008" y="9.64874" width="2" height="20.7217" rx="1" transform="rotate(-54.6829 4.08008 9.64874)" fill="white"/>
</svg>
