<svg width="30" height="30" viewBox="0 0 30 30" fill="none" xmlns="http://www.w3.org/2000/svg">
<path d="M29.9048 27.7919L27.2464 23.531C28.1297 23.1444 28.7501 22.263 28.7501 21.237V10.5935C28.7501 10.2475 28.4705 9.96743 28.1251 9.96743C27.7796 9.96743 27.5 10.2475 27.5 10.5935V11.2196H26.2501V9.94171C26.2501 8.59844 25.7691 7.29614 24.8963 6.27508L22.432 3.39531C21.7496 0.534815 12.0005 0.534815 11.3181 3.39531L8.85383 6.27508C7.98095 7.29614 7.50001 8.59844 7.50001 9.94171V11.2196H6.1349C5.87603 10.4924 5.18878 9.96743 4.37503 9.96743H3.12499C2.95899 9.96743 2.80026 10.0335 2.68307 10.1508L0.183106 12.6552C0.0659181 12.7726 0 12.9315 0 13.0979V16.8544C0 17.8901 0.841056 18.7327 1.875 18.7327H4.99999V20.0481C2.8854 20.3552 1.24998 22.1655 1.24998 24.3674C1.24998 26.7837 3.21288 28.75 5.62501 28.75C8.03714 28.75 10 26.7837 10 24.3674C10 24.153 9.9667 23.9476 9.93688 23.7413H25.9038L28.8453 28.4559C28.9637 28.646 29.1676 28.75 29.3751 28.75C29.4887 28.75 29.6034 28.7194 29.7059 28.6546C29.9988 28.4718 30.0879 28.0854 29.9048 27.7919ZM16.875 2.49994C19.7168 2.49994 21.2501 3.3874 21.2501 3.74992C21.2501 4.11244 19.7168 4.99996 16.875 4.99996C14.0332 4.99996 12.5 4.1125 12.5 3.74998C12.5 3.38746 14.0332 2.49994 16.875 2.49994ZM5.62501 25.625C4.9353 25.625 4.37503 25.0641 4.37503 24.375C4.37503 23.686 4.93536 23.125 5.62501 23.125C6.31472 23.125 6.87499 23.686 6.87499 24.375C6.87499 25.0641 6.31472 25.625 5.62501 25.625ZM26.2501 22.5H9.56117C8.94295 21.2086 7.71664 20.2758 6.25003 20.0632V18.125V12.5H7.50001V16.25C7.50001 18.562 11.5955 21.25 16.875 21.25C22.1546 21.25 26.2501 18.562 26.2501 16.25V12.5H27.5V21.25C27.5 21.9391 26.9398 22.5 26.2501 22.5Z" fill="#3576CB"/>
</svg>
