<svg width="30" height="30" viewBox="0 0 30 30" fill="none" xmlns="http://www.w3.org/2000/svg">
<path d="M28.2422 22.9102H1.75781C0.786973 22.9102 0 23.6971 0 24.668C0 25.6387 0.786973 26.4258 1.75781 26.4258H28.2422C29.213 26.4258 30 25.6387 30 24.668C30 23.6971 29.213 22.9102 28.2422 22.9102Z" fill="#3576CB"/>
<path d="M22.9102 7.9868V11.4844C22.9102 11.9702 22.5171 12.3633 22.0312 12.3633C21.5454 12.3633 21.1523 11.9702 21.1523 11.4844V6.85969C20.5904 6.56238 20.0009 6.31283 19.3945 6.09814V13.2422C19.3945 13.728 19.0014 14.1211 18.5156 14.1211C18.0298 14.1211 17.6367 13.728 17.6367 13.2422V4.45312C17.6367 3.9682 17.2427 3.57422 16.7578 3.57422H13.2422C12.7573 3.57422 12.3633 3.9682 12.3633 4.45312V13.2422C12.3633 13.728 11.9702 14.1211 11.4844 14.1211C10.9986 14.1211 10.6055 13.728 10.6055 13.2422V6.0982C9.99908 6.31289 9.40963 6.56244 8.84766 6.85975V11.4844C8.84766 11.9702 8.45455 12.3633 7.96875 12.3633C7.48295 12.3633 7.08984 11.9702 7.08984 11.4844V7.9868C3.89297 10.3924 1.81641 14.2066 1.81641 18.5156V21.1523H28.1836V18.5156C28.1836 14.2066 26.107 10.3924 22.9102 7.9868Z" fill="#3576CB"/>
</svg>
