<svg width="19" height="12" viewBox="0 0 19 12" fill="none" xmlns="http://www.w3.org/2000/svg">
<path fill-rule="evenodd" clip-rule="evenodd" d="M18.5448 1.13609C18.6767 0.709242 18.5448 0.395508 17.9176 0.395508H15.8435C15.3161 0.395508 15.0732 0.666499 14.9413 0.965409C14.9413 0.965409 13.8865 3.46276 12.3923 5.08496C11.9089 5.55455 11.6892 5.70379 11.4255 5.70379C11.2937 5.70379 11.1028 5.55455 11.1028 5.1277V1.13609C11.1028 0.623757 10.9498 0.395508 10.5103 0.395508H7.25104C6.92156 0.395508 6.72334 0.633255 6.72334 0.858625C6.72334 1.34434 7.47029 1.4563 7.54733 2.82234V5.78942C7.54733 6.43992 7.42644 6.55793 7.16274 6.55793C6.45964 6.55793 4.74943 4.04921 3.73493 1.17883C3.53611 0.620878 3.33671 0.395508 2.80664 0.395508H0.732588C0.140002 0.395508 0.0214844 0.666499 0.0214844 0.965409C0.0214844 1.49904 0.724736 4.14592 3.29552 7.6465C5.00958 10.0369 7.42407 11.333 9.62138 11.333C10.9399 11.333 11.1028 11.0452 11.1028 10.5494V8.74255C11.1028 8.16689 11.2277 8.05205 11.6451 8.05205C11.9529 8.05205 12.4802 8.20143 13.7108 9.35404C15.117 10.7199 15.3487 11.333 16.1398 11.333H18.2139C18.8065 11.333 19.1028 11.0452 18.9318 10.4771C18.7448 9.91099 18.0734 9.08981 17.1825 8.11609C16.6991 7.56101 15.9739 6.96333 15.7544 6.66457C15.4467 6.28031 15.5345 6.10963 15.7544 5.76827C15.7544 5.76827 18.2811 2.31015 18.5448 1.13609Z" fill="white"/>
</svg>
