<svg width="26" height="26" viewBox="0 0 26 26" fill="none" xmlns="http://www.w3.org/2000/svg">
<g clip-path="url(#clip0)">
<path d="M25.6533 8.53683L13.4658 0.140994C13.1842 -0.043173 12.8158 -0.043173 12.5342 0.140994L0.346667 8.53683C0.13 8.68849 0 8.93766 0 9.20849V24.9168C0 25.5127 0.4875 26.0002 1.08333 26.0002H5.41667V13.8127C5.41667 13.3652 5.78283 13.0002 6.22917 13.0002H19.7708C20.2183 13.0002 20.5833 13.3652 20.5833 13.8127V26.0002H24.9167C25.5125 26.0002 26 25.5127 26 24.9168V9.20849C26 8.93766 25.87 8.68849 25.6533 8.53683Z" fill="#3576CB"/>
<path d="M7.04297 18.9583H18.9596V21.6666H7.04297V18.9583Z" fill="#3576CB"/>
<path d="M7.04297 23.2916H18.9596V26H7.04297V23.2916Z" fill="#3576CB"/>
<path d="M7.04297 14.625H18.9596V17.3333H7.04297V14.625Z" fill="#3576CB"/>
</g>
<defs>
<clipPath id="clip0">
<rect width="26" height="26" fill="white"/>
</clipPath>
</defs>
</svg>
